<svg width="500" height="500" viewBox="0 0 500 500" fill="none" xmlns="http://www.w3.org/2000/svg">
<path d="M235.238 63C175.716 132.439 98.5431 287.424 235.238 344.335C371.933 290.646 296.812 132.797 235.238 63Z" fill="url(#paint0_linear_2_2)"/>
<path d="M353.727 165.646C285.583 190.158 169.909 263.201 235.388 344.37C347.389 355.278 364.646 230.263 353.727 165.646Z" fill="url(#paint1_linear_2_2)"/>
<path d="M111.398 382.105V384.742H86.9648V401.441H110.402V404.078H86.9648V421.363H111.809V424H83.8887V382.105H111.398ZM152.678 422.535C148.869 423.707 144.963 424.293 140.959 424.293C126.311 424.293 118.986 417.018 118.986 402.467C118.986 388.697 126.311 381.812 140.959 381.812C144.963 381.812 148.869 382.398 152.678 383.57V386.207C148.869 385.035 145.158 384.449 141.545 384.449C128.557 384.449 122.062 390.455 122.062 402.467C122.062 415.26 128.557 421.656 141.545 421.656C145.158 421.656 148.869 421.07 152.678 419.898V422.535ZM163.547 402.936C163.547 415.416 169.436 421.656 181.213 421.656C192.775 421.656 198.557 415.416 198.557 402.936C198.557 390.611 192.775 384.449 181.213 384.449C169.436 384.449 163.547 390.611 163.547 402.936ZM160.178 403.111C160.178 388.912 167.189 381.812 181.213 381.812C195.021 381.812 201.926 388.912 201.926 403.111C201.926 417.232 195.021 424.293 181.213 424.293C167.189 424.293 160.178 417.232 160.178 403.111ZM211.77 402.936C211.77 415.416 217.658 421.656 229.436 421.656C240.998 421.656 246.779 415.416 246.779 402.936C246.779 390.611 240.998 384.449 229.436 384.449C217.658 384.449 211.77 390.611 211.77 402.936ZM208.4 403.111C208.4 388.912 215.412 381.812 229.436 381.812C243.244 381.812 250.148 388.912 250.148 403.111C250.148 417.232 243.244 424.293 229.436 424.293C215.412 424.293 208.4 417.232 208.4 403.111ZM287.092 422.535V419.312C291.486 420.875 296.33 421.656 301.623 421.656C310.393 421.656 314.777 418.336 314.777 411.695C314.777 406.812 311.926 404.371 306.223 404.371H297.609C289.816 404.371 285.92 400.855 285.92 393.824C285.92 385.816 291.633 381.812 303.059 381.812C307.746 381.812 312.287 382.398 316.682 383.57V386.5C312.287 385.133 307.746 384.449 303.059 384.449C293.684 384.449 288.996 387.574 288.996 393.824C288.996 398.902 291.867 401.441 297.609 401.441H306.223C313.977 401.441 317.854 404.859 317.854 411.695C317.854 420.094 312.443 424.293 301.623 424.293C296.33 424.293 291.486 423.707 287.092 422.535ZM330.305 382.105V424H327.229V382.105H330.305ZM341.174 424V382.105H345.129L373.107 418.785V382.105H375.891V424H373.4L343.957 385.562V424H341.174ZM417.521 422.359C413.947 423.648 410.207 424.293 406.301 424.293C391.32 424.293 383.83 417.018 383.83 402.467C383.83 388.697 391.154 381.812 405.803 381.812C409.807 381.812 413.713 382.398 417.521 383.57V386.207C413.713 385.035 410.002 384.449 406.389 384.449C393.4 384.449 386.906 390.455 386.906 402.467C386.906 415.26 393.215 421.656 405.832 421.656C408.41 421.656 411.281 421.227 414.445 420.367V404.957H417.521V422.359Z" fill="url(#paint2_linear_2_2)"/>
<defs>
<linearGradient id="paint0_linear_2_2" x1="208.145" y1="75.8856" x2="290.985" y2="290.484" gradientUnits="userSpaceOnUse">
<stop stop-color="#62F99F"/>
<stop offset="1" stop-color="#068A3B"/>
</linearGradient>
<linearGradient id="paint1_linear_2_2" x1="330.585" y1="164.91" x2="313.535" y2="330.478" gradientUnits="userSpaceOnUse">
<stop stop-color="#62F99F"/>
<stop offset="1" stop-color="#068A3B"/>
</linearGradient>
<linearGradient id="paint2_linear_2_2" x1="79" y1="403.5" x2="422" y2="403.5" gradientUnits="userSpaceOnUse">
<stop stop-color="#133F25"/>
<stop offset="1" stop-color="#33A561"/>
</linearGradient>
</defs>
</svg>
