<svg width="792" height="500" viewBox="0 0 792 500" fill="none" xmlns="http://www.w3.org/2000/svg">
<g clip-path="url(#clip0_19_3)">
<path opacity="0.5" d="M313 338.788H236V203.819C236 198.831 240.05 194.788 245.046 194.788H313V338.788Z" fill="url(#paint0_linear_19_3)"/>
<path opacity="0.5" d="M474 191.788H515.773L531 206.797V322.788H474V191.788Z" fill="url(#paint1_linear_19_3)"/>
<path opacity="0.5" d="M162.616 169.904L162.215 160.5L161.797 151.095L161.396 141.706L160.661 124.788H137.325L136.59 141.706L136.189 151.095L135.772 160.5L135.371 169.904L130 293.788H168L162.616 169.904Z" fill="url(#paint2_linear_19_3)"/>
<path opacity="0.5" d="M125.456 258.687L125.193 252.455L124.918 246.222L124.655 240.001L124.171 228.788H108.819L108.336 240.001L108.072 246.222L107.798 252.455L107.534 258.687L104 340.788H129L125.456 258.687Z" fill="url(#paint3_linear_19_3)"/>
<path opacity="0.5" d="M561.456 252.689L561.193 246.456L560.918 240.223L560.655 234.001L560.171 222.788H544.819L544.336 234.001L544.072 240.223L543.796 246.456L543.533 252.689L540 334.788H565L561.456 252.689Z" fill="url(#paint4_linear_19_3)"/>
<path opacity="0.5" d="M386.458 166.42L386.194 160.244L385.919 154.067L385.656 147.901L385.172 136.788H369.819L369.336 147.901L369.072 154.067L368.797 160.244L368.533 166.42L365 247.788H390L386.458 166.42Z" fill="url(#paint5_linear_19_3)"/>
<path opacity="0.5" d="M664 256.788H622V371.788H664V256.788Z" fill="url(#paint6_linear_19_3)"/>
<path d="M300.121 77.128C301.696 102.056 281.145 122.607 256.217 121.032C235.66 119.732 218.978 103.052 217.68 82.4946C216.104 57.5668 236.656 37.0154 261.584 38.5909C282.141 39.8892 298.821 56.5706 300.121 77.128Z" fill="url(#paint7_linear_19_3)"/>
<path d="M291.739 104.847C287.736 106.129 251.83 116.721 236.119 89.5872C227.454 74.6197 229.864 58.637 234.163 46.7417C223.448 54.7707 216.755 67.876 217.679 82.4946C218.978 103.052 235.658 119.733 256.216 121.032C270.698 121.947 283.691 115.387 291.739 104.847Z" fill="url(#paint8_linear_19_3)"/>
<path opacity="0.5" d="M714.769 5.90242C709.259 5.60781 704.569 9.49426 685.201 6.08287C665.832 2.67149 669.467 -2.6512 643.457 1.03884C617.448 4.72888 617.172 9.35432 599.739 9.45866C582.308 9.563 577.88 12.1924 574.283 12.0144C570.686 11.8364 574.006 13.3242 592.545 14.5714C611.084 15.8174 611.36 11.7407 634.325 14.348C657.291 16.9554 650.927 15.4369 671.125 14.348C691.323 13.2592 705.888 14.0951 722.124 14.2461C738.361 14.3971 744.448 12.4797 754.686 12.7276C764.925 12.9756 766.411 11.4105 746.023 8.63988C725.636 5.8656 725.41 6.47078 714.769 5.90242Z" fill="url(#paint9_linear_19_3)"/>
<path opacity="0.5" d="M198.768 34.5203C193.258 34.2441 188.567 37.8876 169.199 34.6895C149.831 31.4913 153.465 26.5013 127.456 29.9607C101.447 33.4201 101.171 37.7564 83.7395 37.8543C66.308 37.9521 61.8805 40.4172 58.2833 40.2503C54.6862 40.0834 58.0062 41.4782 76.5451 42.6475C95.0841 43.8156 95.3601 39.9937 118.325 42.438C141.291 44.8824 134.927 43.4588 155.125 42.438C175.323 41.4173 189.888 42.201 206.124 42.3425C222.361 42.4841 228.448 40.6865 238.686 40.9189C248.925 41.1514 250.411 39.6852 230.023 37.0867C209.634 34.4869 209.407 35.0531 198.768 34.5203Z" fill="url(#paint10_linear_19_3)"/>
<path d="M589.987 53.0268C589.987 53.0268 591.44 56.72 595.043 58.8676C598.646 61.0152 603.275 62.8462 603.643 67.1557C604.011 71.4652 606.045 71.3434 607.827 70.0367C609.609 68.73 612.341 66.2635 617.745 68.245C623.148 70.2266 627.139 67.9022 627.139 67.9022C627.139 67.9022 622.528 67.6251 617.299 63.9212C612.07 60.2161 606.703 65.4775 606.703 65.4775C606.703 65.4775 606.955 59.6344 599.537 57.2611C592.117 54.8877 589.987 53.0268 589.987 53.0268Z" fill="url(#paint11_linear_19_3)"/>
<path d="M473.681 120.375C473.681 120.375 476.812 122.814 481.006 122.827C485.201 122.84 490.117 122.059 492.628 125.58C495.14 129.101 496.828 127.961 497.696 125.929C498.564 123.896 499.659 120.383 505.319 119.336C510.978 118.288 513.229 114.256 513.229 114.256C513.229 114.256 509.121 116.365 502.733 115.841C496.345 115.316 494.408 122.576 494.408 122.576C494.408 122.576 491.649 117.42 484.056 119.155C476.463 120.892 473.681 120.375 473.681 120.375Z" fill="url(#paint12_linear_19_3)"/>
<path d="M418 51.9136C418 51.9136 421.798 53.065 425.717 51.572C429.636 50.0777 433.944 47.5826 437.553 49.9666C441.161 52.3507 442.328 50.6809 442.408 48.4724C442.488 46.2639 442.248 42.591 447.154 39.5811C452.06 36.5711 452.711 32 452.711 32C452.711 32 449.635 35.4447 443.486 37.2483C437.335 39.0519 438.135 46.5243 438.135 46.5243C438.135 46.5243 433.708 42.7021 427.245 47.0498C420.782 51.3976 418 51.9136 418 51.9136Z" fill="url(#paint13_linear_19_3)"/>
<path d="M426.278 251.36L425.881 239.419L425.468 227.479L425.071 215.558L424.472 197.871C424.4 195.75 423.029 194.076 421.361 194.076H404.224C402.556 194.076 401.185 195.75 401.112 197.871L400.513 215.558L400.116 227.479L399.703 239.419L399.306 251.36L393.524 422.424H432.077L426.278 251.36Z" fill="url(#paint14_linear_19_3)"/>
<path d="M404.223 194.076C402.555 194.076 401.184 195.75 401.111 197.871L400.512 215.558L400.115 227.479L399.702 239.419L399.305 251.36L393.523 422.424H406.179L408.557 194.076H404.223Z" fill="url(#paint15_linear_19_3)"/>
<path d="M425.467 227.479H400.115L400.513 215.558H425.07L425.467 227.479Z" fill="url(#paint16_linear_19_3)"/>
<path d="M609.915 228.059L609.485 215.131L609.037 202.202L608.607 189.296L607.958 170.147C607.881 167.85 606.396 166.038 604.59 166.038H586.035C584.229 166.038 582.744 167.849 582.666 170.147L582.018 189.296L581.588 202.202L581.14 215.131L580.71 228.059L574.449 413.268H616.189L609.915 228.059Z" fill="url(#paint17_linear_19_3)"/>
<path d="M586.037 166.038C584.231 166.038 582.746 167.849 582.669 170.147L582.02 189.296L581.59 202.202L581.142 215.131L580.712 228.059L574.451 413.268H588.153L590.729 166.038H586.037Z" fill="url(#paint18_linear_19_3)"/>
<path d="M609.038 202.202H581.59L582.02 189.296H608.608L609.038 202.202Z" fill="url(#paint19_linear_19_3)"/>
<path d="M201.012 224.454L200.454 211.283L199.874 198.112L199.316 184.964L198.474 165.455C198.373 163.115 196.447 161.27 194.103 161.27H170.031C167.688 161.27 165.762 163.115 165.66 165.455L164.818 184.964L164.26 198.112L163.68 211.283L163.122 224.454L155 413.143H209.156L201.012 224.454Z" fill="url(#paint20_linear_19_3)"/>
<path d="M170.031 161.269C167.688 161.269 165.762 163.114 165.66 165.454L164.818 184.963L164.26 198.111L163.68 211.282L163.122 224.453L155 413.142H172.778L176.119 161.268L170.031 161.269Z" fill="url(#paint21_linear_19_3)"/>
<path d="M199.874 198.112H164.262L164.82 184.964H199.316L199.874 198.112Z" fill="url(#paint22_linear_19_3)"/>
<path opacity="0.17" d="M1099.89 83.3811C1099.89 83.3811 1053.71 160.199 934.054 123.267C814.396 86.3349 815.873 136.562 787.805 161.268C759.737 185.973 725.76 181.371 671.463 156.75C617.165 132.129 617.429 197.128 541.156 165.914C464.883 134.7 437.859 124.908 391.244 151.699C344.629 178.49 307.861 161.675 249.427 147.888C190.993 134.1 191.486 161.268 191.486 161.268H173.759C173.759 161.268 171.789 120.312 231.666 118.263C286.772 116.378 301.606 125.813 328.516 63.7686C355.427 1.72381 404.827 42.1028 425.429 -1.23122C446.03 -44.5652 525.695 -81.4612 628.692 -51.2743C722.04 -23.9147 769.651 -127.54 817.908 -141H1099.89V83.3811Z" fill="url(#paint23_linear_19_3)"/>
<path opacity="0.04" d="M1099.89 -30.3742V83.3739C1099.89 83.3739 1053.72 160.202 934.054 123.267C814.392 86.3313 815.878 136.564 787.812 161.275C759.731 185.97 725.768 181.375 671.459 156.755C617.166 132.137 617.427 197.122 541.149 165.916C464.887 134.695 437.863 124.905 391.246 151.7C344.628 178.494 307.86 161.674 249.431 147.885C190.986 134.098 191.491 161.275 191.491 161.275H184.597C184.597 161.275 187.048 109.478 292.249 139.521C370.318 161.811 394.737 66.8286 495.249 83.2365C595.762 99.6289 584.563 108.575 653.639 81.3063C722.716 54.0219 713.586 167.587 817.913 49.4102C922.242 -68.78 967.313 80.2648 1099.89 -30.3742Z" fill="url(#paint24_linear_19_3)"/>
<path d="M560.042 406.802H497.964C493.011 406.802 488.995 402.786 488.995 397.833V271.744C488.995 266.791 493.011 262.775 497.964 262.775H560.042C564.995 262.775 569.011 266.791 569.011 271.744V397.832C569.011 402.785 564.995 406.802 560.042 406.802Z" fill="url(#paint25_linear_19_3)"/>
<path d="M567.221 277.383H490.794C488.597 277.383 486.818 275.603 486.818 273.407V266.794C486.818 264.598 488.597 262.818 490.794 262.818H567.221C569.417 262.818 571.197 264.598 571.197 266.794V273.407C571.197 275.602 569.417 277.383 567.221 277.383Z" fill="url(#paint26_linear_19_3)"/>
<path d="M567.221 407.145H490.794C488.597 407.145 486.818 405.365 486.818 403.168V396.556C486.818 394.359 488.597 392.58 490.794 392.58H567.221C569.417 392.58 571.197 394.361 571.197 396.556V403.168C571.197 405.364 569.417 407.145 567.221 407.145Z" fill="url(#paint27_linear_19_3)"/>
<path d="M567.221 313.133H490.794C488.597 313.133 486.818 311.352 486.818 309.157V302.545C486.818 300.348 488.597 298.568 490.794 298.568H567.221C569.417 298.568 571.197 300.348 571.197 302.545V309.157C571.197 311.352 569.417 313.133 567.221 313.133Z" fill="url(#paint28_linear_19_3)"/>
<path d="M567.221 370.4H490.794C488.597 370.4 486.818 368.621 486.818 366.424V359.812C486.818 357.615 488.597 355.835 490.794 355.835H567.221C569.417 355.835 571.197 357.615 571.197 359.812V366.424C571.197 368.621 569.417 370.4 567.221 370.4Z" fill="url(#paint29_linear_19_3)"/>
<path d="M505.101 262.775H497.963C497.675 262.775 497.392 262.792 497.112 262.818H490.794C488.597 262.818 486.818 264.598 486.818 266.794V273.407C486.818 274.951 487.707 276.276 488.994 276.934V299.018C487.707 299.676 486.818 301 486.818 302.545V309.157C486.818 310.701 487.707 312.026 488.994 312.684V356.285C487.707 356.943 486.818 358.267 486.818 359.812V366.424C486.818 367.968 487.707 369.293 488.994 369.951V393.028C487.707 393.686 486.818 395.01 486.818 396.555V403.167C486.818 405.364 488.597 407.143 490.794 407.143H505.102V262.775H505.101Z" fill="url(#paint30_linear_19_3)"/>
<path d="M420.852 298.197H462.014C464.54 298.197 466.588 300.244 466.588 302.77V318.165H478.135V301.394C478.135 293.782 471.965 287.612 464.353 287.612H408.155L420.852 298.197Z" fill="url(#paint31_linear_19_3)"/>
<path d="M446.92 285.97H442.369V300.148H446.92V285.97Z" fill="url(#paint32_linear_19_3)"/>
<path d="M375.024 298.197H405.816C408.342 298.197 410.389 300.244 410.389 302.77V318.165H421.937V301.394C421.937 293.782 415.767 287.612 408.155 287.612H375.024V298.197Z" fill="url(#paint33_linear_19_3)"/>
<path d="M390.722 285.97H386.171V300.148H390.722V285.97Z" fill="url(#paint34_linear_19_3)"/>
<path d="M417.016 401.407H415.883C404.354 401.407 395.008 392.06 395.008 380.532V335.668C395.008 324.139 404.354 314.792 415.883 314.792H417.016C428.545 314.792 437.891 324.139 437.891 335.668V380.532C437.891 392.06 428.545 401.407 417.016 401.407Z" fill="url(#paint35_linear_19_3)"/>
<path d="M439.765 339.483H392.655V346.951H439.765V339.483Z" fill="url(#paint36_linear_19_3)"/>
<path d="M439.765 366.294H392.655V373.763H439.765V366.294Z" fill="url(#paint37_linear_19_3)"/>
<path d="M396.766 383.931L395.911 410.531L416.449 401.407L437.276 410.914V384.87" stroke="url(#paint38_linear_19_3)" stroke-miterlimit="10"/>
<path d="M473.214 401.407H472.081C460.552 401.407 451.206 392.06 451.206 380.532V335.668C451.206 324.139 460.552 314.792 472.081 314.792H473.214C484.743 314.792 494.089 324.139 494.089 335.668V380.532C494.089 392.06 484.743 401.407 473.214 401.407Z" fill="url(#paint39_linear_19_3)"/>
<path d="M495.963 339.483H448.853V346.951H495.963V339.483Z" fill="url(#paint40_linear_19_3)"/>
<path d="M495.963 366.294H448.853V373.763H495.963V366.294Z" fill="url(#paint41_linear_19_3)"/>
<path d="M452.107 386.019V410.531L472.647 401.407L493.473 410.914V384.87" stroke="url(#paint42_linear_19_3)" stroke-miterlimit="10"/>
<path d="M465.65 315.946V311.395H479.829V315.946H465.65Z" fill="url(#paint43_linear_19_3)"/>
<path d="M409.453 315.946V311.395H423.631V315.946H409.453Z" fill="url(#paint44_linear_19_3)"/>
<path d="M405.374 373.163V317.649C399.18 321.271 395.006 327.974 395.006 335.666V380.53C395.006 392.059 404.353 401.405 415.881 401.405H417.015C418.343 401.405 419.638 401.268 420.897 401.03C404.442 391.555 405.374 373.163 405.374 373.163Z" fill="url(#paint45_linear_19_3)"/>
<path d="M461.622 370.341V314.827C455.428 318.449 451.255 325.152 451.255 332.844V377.708C451.255 389.237 460.601 398.583 472.13 398.583H473.263C474.591 398.583 475.886 398.446 477.145 398.208C460.691 388.732 461.622 370.341 461.622 370.341Z" fill="url(#paint46_linear_19_3)"/>
<path d="M476.505 412.354C483.24 406.944 479.433 398.713 471.696 401.732C474.427 396.721 468.396 398.216 468.396 398.216C468.396 398.216 473.409 393.027 471.492 389.01C469.575 384.993 462.727 389.828 462.727 389.828C462.727 389.828 464.946 381.56 458.076 387.993C458.392 385.589 459.32 378.56 455.215 378.298C451.11 378.036 450.031 383.356 450.031 383.356C449.074 377.772 441.27 378.437 440.508 388.498C441.229 384.453 430.351 381.325 433.54 395.671C430.524 390.003 413.796 395.553 419.979 410.018C416.465 409.555 418.207 412.044 418.207 412.044" fill="url(#paint47_linear_19_3)"/>
<path d="M438.67 402.367C435.851 390.16 445.146 392.751 444.56 396.204C445.139 387.622 451.786 387.001 452.641 391.753C452.641 391.753 450.889 381.781 456.73 378.328C456.318 378.029 455.816 377.842 455.202 377.808C451.05 377.578 450.005 382.965 450.005 382.965C448.991 377.329 441.11 378.066 440.423 388.242C441.12 384.147 430.099 381.076 433.441 395.549C430.345 389.847 413.485 395.595 419.856 410.162C416.301 409.722 418.081 412.225 418.081 412.225L426.36 412.199C423.796 401.769 436.244 397.897 438.67 402.367Z" fill="url(#paint48_linear_19_3)"/>
<path d="M266.177 395.565H375.189V223.331H266.177V395.565Z" fill="url(#paint49_linear_19_3)"/>
<path d="M377.685 410.57H250.394C249.085 410.57 248.024 409.51 248.024 408.201V397.934C248.024 396.625 249.085 395.565 250.394 395.565H377.685C378.994 395.565 380.054 396.625 380.054 397.934V408.201C380.056 409.51 378.994 410.57 377.685 410.57Z" fill="url(#paint50_linear_19_3)"/>
<path d="M375.189 224.142H266.127C266.127 194.639 290.044 170.721 319.548 170.721H321.77C351.272 170.721 375.189 194.639 375.189 224.142Z" fill="url(#paint51_linear_19_3)"/>
<path d="M337.988 252.066H375.126V247.656H337.988V252.066Z" fill="url(#paint52_linear_19_3)"/>
<path d="M266.164 252.066H329.789V247.656H266.164V252.066Z" fill="url(#paint53_linear_19_3)"/>
<path d="M337.988 266.447H375.126V262.037H337.988V266.447Z" fill="url(#paint54_linear_19_3)"/>
<path d="M266.164 266.447H329.789V262.037H266.164V266.447Z" fill="url(#paint55_linear_19_3)"/>
<path d="M337.988 252.066H375.126V247.656H337.988V252.066Z" fill="url(#paint56_linear_19_3)"/>
<path d="M266.164 252.066H329.789V247.656H266.164V252.066Z" fill="url(#paint57_linear_19_3)"/>
<path d="M337.988 266.447H375.126V262.037H337.988V266.447Z" fill="url(#paint58_linear_19_3)"/>
<path d="M266.164 266.447H329.789V262.037H266.164V266.447Z" fill="url(#paint59_linear_19_3)"/>
<path d="M337.988 279.46H375.126V275.05H337.988V279.46Z" fill="url(#paint60_linear_19_3)"/>
<path d="M266.164 279.46H329.789V275.05H266.164V279.46Z" fill="url(#paint61_linear_19_3)"/>
<path d="M337.988 293.84H375.126V289.431H337.988V293.84Z" fill="url(#paint62_linear_19_3)"/>
<path d="M266.164 293.84H329.789V289.431H266.164V293.84Z" fill="url(#paint63_linear_19_3)"/>
<path d="M337.988 306.086H375.126V301.676H337.988V306.086Z" fill="url(#paint64_linear_19_3)"/>
<path d="M266.164 306.086H329.789V301.676H266.164V306.086Z" fill="url(#paint65_linear_19_3)"/>
<path d="M337.988 320.467H375.126V316.057H337.988V320.467Z" fill="url(#paint66_linear_19_3)"/>
<path d="M337.988 333.481H375.126V329.071H337.988V333.481Z" fill="url(#paint67_linear_19_3)"/>
<path d="M266.164 333.481H329.789V329.071H266.164V333.481Z" fill="url(#paint68_linear_19_3)"/>
<path d="M337.988 347.86H375.126V343.45H337.988V347.86Z" fill="url(#paint69_linear_19_3)"/>
<path d="M266.164 347.86H329.789V343.45H266.164V347.86Z" fill="url(#paint70_linear_19_3)"/>
<path d="M337.988 361.51H375.126V357.1H337.988V361.51Z" fill="url(#paint71_linear_19_3)"/>
<path d="M266.164 361.51H329.789V357.1H266.164V361.51Z" fill="url(#paint72_linear_19_3)"/>
<path d="M337.988 375.89H375.126V371.48H337.988V375.89Z" fill="url(#paint73_linear_19_3)"/>
<path d="M266.164 375.89H329.789V371.48H266.164V375.89Z" fill="url(#paint74_linear_19_3)"/>
<path d="M266.164 320.384H329.789V315.974H266.164V320.384Z" fill="url(#paint75_linear_19_3)"/>
<path d="M282.889 250.708C282.889 200.716 299.968 179.746 311.023 171.406C285.573 175.506 266.126 197.658 266.126 224.38H266.176V248H266.164V252.429H266.176V262.445H266.164V266.874H266.176V275.517H266.164V279.946H266.176V289.963H266.164V294.392H266.176V302.264H266.164V306.693H266.176V316.626H266.164V321.055H266.176V329.781H266.164V334.21H266.176V334.856L271.956 403.999L278.375 410.446H282.889C282.889 391.287 282.889 314.818 282.889 250.708Z" fill="url(#paint76_linear_19_3)"/>
<path d="M194.805 396.999H275.082V287.44C275.082 284.357 272.583 281.858 269.5 281.858H200.369C197.297 281.858 194.805 284.349 194.805 287.422V396.999Z" fill="url(#paint77_linear_19_3)"/>
<path d="M194.829 377.028H188.506C187.271 377.028 186.27 375.895 186.27 374.496V312.355C186.27 310.994 187.243 309.892 188.445 309.892H192.507" stroke="url(#paint78_linear_19_3)" stroke-width="2.1453" stroke-miterlimit="10" stroke-linecap="round"/>
<path d="M253.977 321.939C253.104 321.939 252.339 321.204 252.266 320.22C251.493 309.856 243.797 301.689 234.447 301.689C225.098 301.689 217.403 309.856 216.63 320.22C216.556 321.204 215.79 321.939 214.918 321.939C213.881 321.939 213.104 320.913 213.197 319.743C214.179 307.444 223.334 297.775 234.447 297.775C245.56 297.775 254.715 307.444 255.698 319.743C255.792 320.913 255.014 321.939 253.977 321.939Z" fill="url(#paint79_linear_19_3)"/>
<path d="M240.267 311.262C240.267 311.262 235.719 314.131 235.472 314.044C234.905 313.844 234.281 313.808 233.655 313.978C231.845 314.467 230.718 316.48 231.139 318.471C231.559 320.462 233.367 321.68 235.178 321.19C236.989 320.7 238.115 318.689 237.695 316.696C237.614 316.311 240.267 311.262 240.267 311.262Z" fill="url(#paint80_linear_19_3)"/>
<path d="M243.218 380.333C243.218 380.333 226.491 388.289 222.872 356.979C222.872 356.979 250.743 357.295 243.218 380.333Z" fill="url(#paint81_linear_19_3)"/>
<path d="M233.541 367.786C241.028 370.955 242.778 380.463 242.778 380.463L242.902 380.466C243.101 380.388 243.218 380.334 243.218 380.334C250.555 357.872 224.257 357.011 222.935 356.981C224.76 359.92 228.862 365.804 233.541 367.786Z" fill="url(#paint82_linear_19_3)"/>
<path d="M277.893 396.991H192.48C191.822 396.991 191.289 397.524 191.289 398.182V409.519C191.289 410.177 191.822 410.71 192.48 410.71H277.893C278.552 410.71 279.084 410.176 279.084 409.519V398.182C279.086 397.525 278.552 396.991 277.893 396.991Z" fill="url(#paint83_linear_19_3)"/>
<path d="M194.898 318.158H192.464C192.22 318.158 192.022 317.96 192.022 317.716V302.818C192.022 302.575 192.22 302.376 192.464 302.376H194.898V318.158Z" fill="url(#paint84_linear_19_3)"/>
<path d="M209.603 290.737H194.708V396.923H209.603V290.737Z" fill="url(#paint85_linear_19_3)"/>
<path d="M427.528 437.788C434.24 432.389 430.447 424.174 422.736 427.187C425.458 422.185 419.447 423.678 419.447 423.678C419.447 423.678 424.443 418.498 422.532 414.489C420.623 410.48 413.797 415.306 413.797 415.306C413.797 415.306 416.01 407.053 409.162 413.474C409.479 411.075 410.403 404.059 406.311 403.798C402.22 403.537 401.145 408.846 401.145 408.846C400.192 403.273 392.414 403.936 391.655 413.979C392.374 409.941 381.532 406.819 384.71 421.138C381.705 415.481 365.034 421.02 371.197 435.458C367.695 434.995 369.43 437.48 369.43 437.48" fill="url(#paint86_linear_19_3)"/>
<path d="M389.984 427.052C387.172 414.995 396.445 417.554 395.86 420.965C396.438 412.488 403.068 411.875 403.921 416.569C403.921 416.569 402.173 406.719 408 403.309C407.589 403.014 407.088 402.829 406.475 402.795C402.333 402.568 401.291 407.888 401.291 407.888C400.279 402.322 392.417 403.05 391.732 413.1C392.427 409.056 381.433 406.023 384.767 420.318C381.678 414.686 364.86 420.363 371.215 434.751C367.668 434.317 369.445 436.788 369.445 436.788L377.703 436.764C375.145 426.462 387.563 422.639 389.984 427.052Z" fill="url(#paint87_linear_19_3)"/>
<path d="M65 386C70.5294 376.972 77.7612 366.654 77.7612 366.654C77.7612 366.654 60.7458 375.682 69.6788 361.495C78.6117 347.309 81.5894 333.169 81.5894 333.169C81.5894 333.169 67.1992 339.025 76.0587 327.246C87.9693 311.411 93.5 294 93.5 294C93.5 294 99.0294 311.411 110.94 327.246C119.8 339.024 105.411 333.169 105.411 333.169C105.411 333.169 108.388 347.309 117.321 361.495C126.254 375.682 109.239 366.654 109.239 366.654C109.239 366.654 116.471 376.972 122 386H65Z" fill="url(#paint88_linear_19_3)"/>
<path d="M57.3597 398.29H66.682V376.314H57.3597V398.29Z" fill="url(#paint89_linear_19_3)"/>
<path d="M39 381.115C43.4965 373.852 49.3755 365.551 49.3755 365.551C49.3755 365.551 35.5411 372.814 42.8039 361.401C50.0668 349.988 52.4882 338.613 52.4882 338.613C52.4882 338.613 40.7878 343.323 47.9917 333.848C57.6759 321.108 62.1724 307.101 62.1724 307.101C62.1724 307.101 66.6689 321.108 76.3519 333.848C83.5557 343.323 71.8554 338.613 71.8554 338.613C71.8554 338.613 74.2768 349.988 81.5396 361.401C88.8025 372.814 74.968 365.551 74.968 365.551C74.968 365.551 80.8484 373.852 85.3436 381.115H39Z" fill="url(#paint90_linear_19_3)"/>
<path d="M51.2932 381.115L58.5941 359.981C58.745 359.545 58.5272 359.069 58.0996 358.898L54.0845 357.286C53.6294 357.103 53.4169 356.578 53.6202 356.129L64.2239 332.676C64.5033 332.057 63.9918 331.374 63.3202 331.466L59.5713 331.982C58.9312 332.07 58.4249 331.45 58.64 330.841L64.7066 313.619C63.0001 309.676 62.1724 307.098 62.1724 307.098C62.1724 307.098 57.6759 321.106 47.9917 333.845C40.7878 343.321 52.4882 338.61 52.4882 338.61C52.4882 338.61 50.0668 349.985 42.8039 361.399C35.5411 372.812 49.3755 365.549 49.3755 365.549C49.3755 365.549 43.4952 373.849 39 381.112H51.2932V381.115Z" fill="url(#paint91_linear_19_3)"/>
<path d="M657 415C650.21 403.813 641.328 391.027 641.328 391.027C641.328 391.027 662.224 402.214 651.254 384.635C640.284 367.057 636.627 349.536 636.627 349.536C636.627 349.536 654.299 356.792 643.419 342.196C628.792 322.575 622 301 622 301C622 301 615.21 322.575 600.583 342.196C589.702 356.79 607.373 349.536 607.373 349.536C607.373 349.536 603.716 367.057 592.746 384.635C581.776 402.214 602.672 391.027 602.672 391.027C602.672 391.027 593.79 403.813 587 415H657Z" fill="url(#paint92_linear_19_3)"/>
<path d="M689 409C683.47 400.07 676.239 389.865 676.239 389.865C676.239 389.865 693.254 398.795 684.321 384.762C675.388 370.73 672.41 356.744 672.41 356.744C672.41 356.744 686.801 362.536 677.941 350.885C666.03 335.222 660.499 318 660.499 318C660.499 318 654.969 335.222 643.059 350.885C634.199 362.536 648.59 356.744 648.59 356.744C648.59 356.744 645.612 370.73 636.679 384.762C627.746 398.795 644.761 389.865 644.761 389.865C644.761 389.865 637.529 400.07 632 409H689Z" fill="url(#paint93_linear_19_3)"/>
<path d="M673.697 409L664.609 383.017C664.421 382.481 664.692 381.896 665.225 381.686L670.223 379.704C670.789 379.478 671.054 378.833 670.801 378.282L657.601 349.447C657.253 348.686 657.89 347.846 658.726 347.959L663.392 348.594C664.189 348.702 664.82 347.939 664.552 347.191L657 326.017C659.124 321.169 660.155 318 660.155 318C660.155 318 665.752 335.222 677.807 350.884C686.774 362.534 672.21 356.743 672.21 356.743C672.21 356.743 675.224 370.728 684.265 384.76C693.306 398.792 676.084 389.862 676.084 389.862C676.084 389.862 683.404 400.067 689 408.997H673.697V409Z" fill="url(#paint94_linear_19_3)"/>
<path d="M142.325 433.625C156.092 422.568 148.31 405.745 132.496 411.914C138.079 401.671 125.751 404.728 125.751 404.728C125.751 404.728 135.997 394.12 132.08 385.911C128.164 377.701 114.166 387.583 114.166 387.583C114.166 387.583 118.704 370.684 104.66 383.832C105.308 378.917 107.204 364.551 98.812 364.016C90.4211 363.479 88.2162 374.356 88.2162 374.356C86.2597 362.943 70.3104 364.301 68.7517 384.867C70.2268 376.599 47.9913 370.204 54.5093 399.527C48.3448 387.944 14.153 399.285 26.7937 428.852C19.6104 427.905 23.1698 432.993 23.1698 432.993" fill="url(#paint95_linear_19_3)"/>
<path d="M64.9952 413.213C59.2333 388.264 78.2319 393.558 77.0327 400.615C78.2164 383.075 91.8018 381.804 93.5505 391.519C93.5505 391.519 89.9696 371.136 101.907 364.078C101.065 363.469 100.039 363.085 98.7833 363.015C90.298 362.543 88.1612 373.553 88.1612 373.553C86.0889 362.035 69.9808 363.541 68.5773 384.339C69.9999 375.971 47.4741 369.694 54.305 399.275C47.9781 387.62 13.5176 399.367 26.5393 429.143C19.2712 428.245 22.9118 433.358 22.9118 433.358L39.8321 433.308C34.5933 411.991 60.0359 404.078 64.9952 413.213Z" fill="url(#paint96_linear_19_3)"/>
<path d="M53 522.362C53 522.362 144.019 510.24 206.892 463.613C269.765 416.987 401.843 511.732 526.333 437.137C650.822 362.542 842.166 425.872 842.166 425.872L847 580.707L66.7647 605.788L53 522.362Z" fill="url(#paint97_linear_19_3)"/>
<path d="M728.974 421.869C738.834 413.949 733.261 401.902 721.934 406.319C725.932 398.984 717.104 401.172 717.104 401.172C717.104 401.172 724.443 393.575 721.636 387.695C718.831 381.815 708.807 388.893 708.807 388.893C708.807 388.893 712.055 376.789 701.998 386.207C702.462 382.687 703.819 372.397 697.81 372.014C691.8 371.63 690.221 379.419 690.221 379.419C688.82 371.245 677.396 372.217 676.279 386.946C677.336 381.025 661.41 376.444 666.078 397.447C661.663 389.15 637.174 397.272 646.227 418.449C641.083 417.769 643.631 421.414 643.631 421.414" fill="url(#paint98_linear_19_3)"/>
<path d="M709.326 416.602C712.693 410.425 705.257 412.269 705.257 412.269C705.257 412.269 711.438 405.87 709.075 400.918C706.713 395.967 698.269 401.927 698.269 401.927C698.269 401.927 701.006 391.733 692.535 399.666C692.927 396.701 694.069 388.035 689.008 387.711C683.946 387.387 682.617 393.948 682.617 393.948C682.617 393.948 678.302 391.197 676.295 385.62C678.078 372.325 688.755 371.668 690.112 379.58C690.112 379.58 691.698 371.755 697.736 372.14C703.774 372.526 702.411 382.864 701.944 386.4C712.049 376.938 708.785 389.099 708.785 389.099C708.785 389.099 718.857 381.988 721.676 387.896C724.494 393.804 717.121 401.437 717.121 401.437C717.121 401.437 725.992 399.238 721.975 406.608C733.355 402.17 738.956 414.275 729.049 422.232L719.519 422.181C719.659 417.638 715.532 414.182 709.326 416.602Z" fill="url(#paint99_linear_19_3)"/>
<path d="M211.065 495.586C201.458 487.87 206.888 476.132 217.924 480.436C214.029 473.29 222.63 475.422 222.63 475.422C222.63 475.422 215.48 468.02 218.214 462.291C220.947 456.563 230.714 463.458 230.714 463.458C230.714 463.458 227.548 451.666 237.347 460.841C236.895 457.412 235.573 447.387 241.428 447.013C247.283 446.64 248.821 454.228 248.821 454.228C250.186 446.264 261.316 447.212 262.404 461.562C261.375 455.792 276.89 451.33 272.343 471.792C276.644 463.709 300.503 471.622 291.683 492.254C296.695 491.592 294.212 495.143 294.212 495.143" fill="url(#paint100_linear_19_3)"/>
<path d="M230.207 490.455C226.927 484.436 234.172 486.233 234.172 486.233C234.172 486.233 228.15 479.999 230.452 475.174C232.754 470.35 240.98 476.157 240.98 476.157C240.98 476.157 238.314 466.226 246.566 473.954C246.185 471.066 245.072 462.622 250.003 462.307C254.934 461.992 256.229 468.383 256.229 468.383C256.229 468.383 260.433 465.703 262.389 460.269C260.652 447.317 250.25 446.677 248.928 454.385C248.928 454.385 247.382 446.761 241.499 447.136C235.617 447.513 236.945 457.584 237.4 461.03C227.554 451.811 230.735 463.659 230.735 463.659C230.735 463.659 220.922 456.731 218.176 462.487C215.43 468.243 222.613 475.68 222.613 475.68C222.613 475.68 213.97 473.537 217.884 480.718C206.796 476.394 201.34 488.188 210.992 495.94L220.277 495.889C220.141 491.464 224.161 488.097 230.207 490.455Z" fill="url(#paint101_linear_19_3)"/>
</g>
<defs>
<linearGradient id="paint0_linear_19_3" x1="274.5" y1="93.5102" x2="274.5" y2="386.737" gradientUnits="userSpaceOnUse">
<stop offset="0.1869" stop-color="#B5DB9C"/>
<stop offset="0.6782" stop-color="#E1F0D6" stop-opacity="0.3958"/>
<stop offset="1" stop-color="white" stop-opacity="0"/>
</linearGradient>
<linearGradient id="paint1_linear_19_3" x1="502.5" y1="61.7313" x2="502.5" y2="328.485" gradientUnits="userSpaceOnUse">
<stop offset="0.1869" stop-color="#B5DB9C"/>
<stop offset="0.6782" stop-color="#E1F0D6" stop-opacity="0.3958"/>
<stop offset="1" stop-color="white" stop-opacity="0"/>
</linearGradient>
<linearGradient id="paint2_linear_19_3" x1="121.546" y1="47.5994" x2="162.768" y2="331.815" gradientUnits="userSpaceOnUse">
<stop offset="0.1869" stop-color="#B5DB9C"/>
<stop offset="0.6782" stop-color="#E1F0D6" stop-opacity="0.3958"/>
<stop offset="1" stop-color="white" stop-opacity="0"/>
</linearGradient>
<linearGradient id="paint3_linear_19_3" x1="98.438" y1="177.633" x2="125.95" y2="365.932" gradientUnits="userSpaceOnUse">
<stop offset="0.1869" stop-color="#B5DB9C"/>
<stop offset="0.6782" stop-color="#E1F0D6" stop-opacity="0.3958"/>
<stop offset="1" stop-color="white" stop-opacity="0"/>
</linearGradient>
<linearGradient id="paint4_linear_19_3" x1="534.438" y1="171.634" x2="561.95" y2="359.932" gradientUnits="userSpaceOnUse">
<stop offset="0.1869" stop-color="#B5DB9C"/>
<stop offset="0.6782" stop-color="#E1F0D6" stop-opacity="0.3958"/>
<stop offset="1" stop-color="white" stop-opacity="0"/>
</linearGradient>
<linearGradient id="paint5_linear_19_3" x1="359.438" y1="86.0908" x2="386.469" y2="272.777" gradientUnits="userSpaceOnUse">
<stop offset="0.1869" stop-color="#B5DB9C"/>
<stop offset="0.6782" stop-color="#E1F0D6" stop-opacity="0.3958"/>
<stop offset="1" stop-color="white" stop-opacity="0"/>
</linearGradient>
<linearGradient id="paint6_linear_19_3" x1="626.427" y1="200.629" x2="655.463" y2="399.066" gradientUnits="userSpaceOnUse">
<stop offset="0.1869" stop-color="#B5DB9C"/>
<stop offset="0.6782" stop-color="#E1F0D6" stop-opacity="0.3958"/>
<stop offset="1" stop-color="white" stop-opacity="0"/>
</linearGradient>
<linearGradient id="paint7_linear_19_3" x1="217.594" y1="79.8111" x2="300.205" y2="79.8111" gradientUnits="userSpaceOnUse">
<stop stop-color="#F6B141"/>
<stop offset="0.2176" stop-color="#F4A740"/>
<stop offset="0.587" stop-color="#F08C3C"/>
<stop offset="1" stop-color="#E96736"/>
</linearGradient>
<linearGradient id="paint8_linear_19_3" x1="212.906" y1="72.0779" x2="281.759" y2="99.5875" gradientUnits="userSpaceOnUse">
<stop stop-color="white" stop-opacity="0"/>
<stop offset="0.7724" stop-color="white" stop-opacity="0.3"/>
</linearGradient>
<linearGradient id="paint9_linear_19_3" x1="573.002" y1="7.78734" x2="762.001" y2="7.78734" gradientUnits="userSpaceOnUse">
<stop offset="0.1869" stop-color="#B5DB9C"/>
<stop offset="0.6782" stop-color="#E1F0D6" stop-opacity="0.3958"/>
<stop offset="1" stop-color="white" stop-opacity="0"/>
</linearGradient>
<linearGradient id="paint10_linear_19_3" x1="57.0002" y1="36.288" x2="246" y2="36.288" gradientUnits="userSpaceOnUse">
<stop offset="0.1869" stop-color="#B5DB9C"/>
<stop offset="0.6782" stop-color="#E1F0D6" stop-opacity="0.3958"/>
<stop offset="1" stop-color="white" stop-opacity="0"/>
</linearGradient>
<linearGradient id="paint11_linear_19_3" x1="589.889" y1="62.7682" x2="627.186" y2="63.1414" gradientUnits="userSpaceOnUse">
<stop stop-color="#19543E"/>
<stop offset="0.3071" stop-color="#1D4A39"/>
<stop offset="0.8269" stop-color="#262F2C"/>
<stop offset="1" stop-color="#2A2527"/>
</linearGradient>
<linearGradient id="paint12_linear_19_3" x1="478.559" y1="128.808" x2="510.845" y2="110.134" gradientUnits="userSpaceOnUse">
<stop stop-color="#19543E"/>
<stop offset="0.3071" stop-color="#1D4A39"/>
<stop offset="0.8269" stop-color="#262F2C"/>
<stop offset="1" stop-color="#2A2527"/>
</linearGradient>
<linearGradient id="paint13_linear_19_3" x1="426.172" y1="57.1042" x2="445.163" y2="27.2046" gradientUnits="userSpaceOnUse">
<stop stop-color="#19543E"/>
<stop offset="0.3071" stop-color="#1D4A39"/>
<stop offset="0.8269" stop-color="#262F2C"/>
<stop offset="1" stop-color="#2A2527"/>
</linearGradient>
<linearGradient id="paint14_linear_19_3" x1="447.06" y1="308.25" x2="400.828" y2="308.25" gradientUnits="userSpaceOnUse">
<stop stop-color="#E4F4E9"/>
<stop offset="0.2401" stop-color="#DFF3DF"/>
<stop offset="0.6462" stop-color="#D1EFC4"/>
<stop offset="1" stop-color="#C2EBA8"/>
</linearGradient>
<linearGradient id="paint15_linear_19_3" x1="574.456" y1="273.041" x2="458.193" y2="297.208" gradientUnits="userSpaceOnUse">
<stop offset="0.3081" stop-color="white" stop-opacity="0"/>
<stop offset="0.7724" stop-color="white" stop-opacity="0.3"/>
</linearGradient>
<linearGradient id="paint16_linear_19_3" x1="400.116" y1="221.518" x2="425.468" y2="221.518" gradientUnits="userSpaceOnUse">
<stop stop-color="#19543E"/>
<stop offset="0.3071" stop-color="#1D4A39"/>
<stop offset="0.8269" stop-color="#262F2C"/>
<stop offset="1" stop-color="#2A2527"/>
</linearGradient>
<linearGradient id="paint17_linear_19_3" x1="632.416" y1="289.653" x2="582.362" y2="289.653" gradientUnits="userSpaceOnUse">
<stop stop-color="#E4F4E9"/>
<stop offset="0.2401" stop-color="#DFF3DF"/>
<stop offset="0.6462" stop-color="#D1EFC4"/>
<stop offset="1" stop-color="#C2EBA8"/>
</linearGradient>
<linearGradient id="paint18_linear_19_3" x1="770.346" y1="251.533" x2="644.47" y2="277.698" gradientUnits="userSpaceOnUse">
<stop offset="0.3081" stop-color="white" stop-opacity="0"/>
<stop offset="0.7724" stop-color="white" stop-opacity="0.3"/>
</linearGradient>
<linearGradient id="paint19_linear_19_3" x1="581.59" y1="195.749" x2="609.038" y2="195.749" gradientUnits="userSpaceOnUse">
<stop stop-color="#19543E"/>
<stop offset="0.3071" stop-color="#1D4A39"/>
<stop offset="0.8269" stop-color="#262F2C"/>
<stop offset="1" stop-color="#2A2527"/>
</linearGradient>
<linearGradient id="paint20_linear_19_3" x1="230.204" y1="287.206" x2="165.263" y2="287.206" gradientUnits="userSpaceOnUse">
<stop stop-color="#E4F4E9"/>
<stop offset="0.2401" stop-color="#DFF3DF"/>
<stop offset="0.6462" stop-color="#D1EFC4"/>
<stop offset="1" stop-color="#C2EBA8"/>
</linearGradient>
<linearGradient id="paint21_linear_19_3" x1="369.463" y1="245.989" x2="232.785" y2="274.4" gradientUnits="userSpaceOnUse">
<stop offset="0.3081" stop-color="white" stop-opacity="0"/>
<stop offset="0.7724" stop-color="white" stop-opacity="0.3"/>
</linearGradient>
<linearGradient id="paint22_linear_19_3" x1="164.262" y1="191.538" x2="199.873" y2="191.538" gradientUnits="userSpaceOnUse">
<stop stop-color="#19543E"/>
<stop offset="0.3071" stop-color="#1D4A39"/>
<stop offset="0.8269" stop-color="#262F2C"/>
<stop offset="1" stop-color="#2A2527"/>
</linearGradient>
<linearGradient id="paint23_linear_19_3" x1="836.653" y1="14.3011" x2="521.835" y2="115.657" gradientUnits="userSpaceOnUse">
<stop stop-color="#292B3A" stop-opacity="0"/>
<stop offset="0.3164" stop-color="#5A6666" stop-opacity="0.3164"/>
<stop offset="1" stop-color="#CCF0CD"/>
</linearGradient>
<linearGradient id="paint24_linear_19_3" x1="576.785" y1="360.481" x2="716.632" y2="-149.664" gradientUnits="userSpaceOnUse">
<stop stop-color="#292B3A"/>
<stop offset="0.1467" stop-color="#424451"/>
<stop offset="0.4594" stop-color="#83848D"/>
<stop offset="0.91" stop-color="#EAEAEB"/>
<stop offset="1" stop-color="white"/>
</linearGradient>
<linearGradient id="paint25_linear_19_3" x1="488.994" y1="334.788" x2="569.011" y2="334.788" gradientUnits="userSpaceOnUse">
<stop stop-color="#E4F4E9"/>
<stop offset="0.2401" stop-color="#DFF3DF"/>
<stop offset="0.6462" stop-color="#D1EFC4"/>
<stop offset="1" stop-color="#C2EBA8"/>
</linearGradient>
<linearGradient id="paint26_linear_19_3" x1="486.769" y1="272.764" x2="571.246" y2="267.436" gradientUnits="userSpaceOnUse">
<stop stop-color="#327F4F"/>
<stop offset="1" stop-color="#59E05A"/>
</linearGradient>
<linearGradient id="paint27_linear_19_3" x1="486.769" y1="402.525" x2="571.246" y2="397.198" gradientUnits="userSpaceOnUse">
<stop stop-color="#327F4F"/>
<stop offset="1" stop-color="#59E05A"/>
</linearGradient>
<linearGradient id="paint28_linear_19_3" x1="486.769" y1="308.514" x2="571.246" y2="303.187" gradientUnits="userSpaceOnUse">
<stop stop-color="#327F4F"/>
<stop offset="1" stop-color="#59E05A"/>
</linearGradient>
<linearGradient id="paint29_linear_19_3" x1="486.769" y1="365.781" x2="571.246" y2="360.454" gradientUnits="userSpaceOnUse">
<stop stop-color="#327F4F"/>
<stop offset="1" stop-color="#59E05A"/>
</linearGradient>
<linearGradient id="paint30_linear_19_3" x1="494.902" y1="260.43" x2="496.685" y2="382.778" gradientUnits="userSpaceOnUse">
<stop offset="0.3081" stop-color="white" stop-opacity="0"/>
<stop offset="0.82" stop-color="white" stop-opacity="0.3"/>
</linearGradient>
<linearGradient id="paint31_linear_19_3" x1="408.155" y1="302.888" x2="478.135" y2="302.888" gradientUnits="userSpaceOnUse">
<stop stop-color="#19543E"/>
<stop offset="0.3071" stop-color="#1D4A39"/>
<stop offset="0.8269" stop-color="#262F2C"/>
<stop offset="1" stop-color="#2A2527"/>
</linearGradient>
<linearGradient id="paint32_linear_19_3" x1="442.369" y1="293.059" x2="446.92" y2="293.059" gradientUnits="userSpaceOnUse">
<stop stop-color="#327F4F"/>
<stop offset="1" stop-color="#59E05A"/>
</linearGradient>
<linearGradient id="paint33_linear_19_3" x1="375.024" y1="302.888" x2="421.938" y2="302.888" gradientUnits="userSpaceOnUse">
<stop stop-color="#19543E"/>
<stop offset="0.3071" stop-color="#1D4A39"/>
<stop offset="0.8269" stop-color="#262F2C"/>
<stop offset="1" stop-color="#2A2527"/>
</linearGradient>
<linearGradient id="paint34_linear_19_3" x1="386.172" y1="293.059" x2="390.723" y2="293.059" gradientUnits="userSpaceOnUse">
<stop stop-color="#327F4F"/>
<stop offset="1" stop-color="#59E05A"/>
</linearGradient>
<linearGradient id="paint35_linear_19_3" x1="395.007" y1="358.099" x2="437.891" y2="358.099" gradientUnits="userSpaceOnUse">
<stop stop-color="#327F4F"/>
<stop offset="1" stop-color="#59E05A"/>
</linearGradient>
<linearGradient id="paint36_linear_19_3" x1="392.655" y1="343.217" x2="439.765" y2="343.217" gradientUnits="userSpaceOnUse">
<stop stop-color="#19543E"/>
<stop offset="0.3071" stop-color="#1D4A39"/>
<stop offset="0.8269" stop-color="#262F2C"/>
<stop offset="1" stop-color="#2A2527"/>
</linearGradient>
<linearGradient id="paint37_linear_19_3" x1="392.655" y1="370.028" x2="439.765" y2="370.028" gradientUnits="userSpaceOnUse">
<stop stop-color="#19543E"/>
<stop offset="0.3071" stop-color="#1D4A39"/>
<stop offset="0.8269" stop-color="#262F2C"/>
<stop offset="1" stop-color="#2A2527"/>
</linearGradient>
<linearGradient id="paint38_linear_19_3" x1="395.283" y1="397.878" x2="437.873" y2="397.878" gradientUnits="userSpaceOnUse">
<stop stop-color="#327F4F"/>
<stop offset="1" stop-color="#59E05A"/>
</linearGradient>
<linearGradient id="paint39_linear_19_3" x1="451.205" y1="358.099" x2="494.089" y2="358.099" gradientUnits="userSpaceOnUse">
<stop stop-color="#327F4F"/>
<stop offset="1" stop-color="#59E05A"/>
</linearGradient>
<linearGradient id="paint40_linear_19_3" x1="448.852" y1="343.217" x2="495.963" y2="343.217" gradientUnits="userSpaceOnUse">
<stop stop-color="#19543E"/>
<stop offset="0.3071" stop-color="#1D4A39"/>
<stop offset="0.8269" stop-color="#262F2C"/>
<stop offset="1" stop-color="#2A2527"/>
</linearGradient>
<linearGradient id="paint41_linear_19_3" x1="448.852" y1="370.028" x2="495.963" y2="370.028" gradientUnits="userSpaceOnUse">
<stop stop-color="#19543E"/>
<stop offset="0.3071" stop-color="#1D4A39"/>
<stop offset="0.8269" stop-color="#262F2C"/>
<stop offset="1" stop-color="#2A2527"/>
</linearGradient>
<linearGradient id="paint42_linear_19_3" x1="451.511" y1="398.357" x2="494.071" y2="398.357" gradientUnits="userSpaceOnUse">
<stop stop-color="#327F4F"/>
<stop offset="1" stop-color="#59E05A"/>
</linearGradient>
<linearGradient id="paint43_linear_19_3" x1="465.65" y1="313.671" x2="479.828" y2="313.671" gradientUnits="userSpaceOnUse">
<stop stop-color="#327F4F"/>
<stop offset="1" stop-color="#59E05A"/>
</linearGradient>
<linearGradient id="paint44_linear_19_3" x1="409.453" y1="313.671" x2="423.631" y2="313.671" gradientUnits="userSpaceOnUse">
<stop stop-color="#327F4F"/>
<stop offset="1" stop-color="#59E05A"/>
</linearGradient>
<linearGradient id="paint45_linear_19_3" x1="389.672" y1="328.928" x2="421.405" y2="396.773" gradientUnits="userSpaceOnUse">
<stop offset="0.3081" stop-color="white" stop-opacity="0"/>
<stop offset="1" stop-color="white" stop-opacity="0.3"/>
</linearGradient>
<linearGradient id="paint46_linear_19_3" x1="445.92" y1="326.105" x2="477.653" y2="393.951" gradientUnits="userSpaceOnUse">
<stop offset="0.3081" stop-color="white" stop-opacity="0"/>
<stop offset="1" stop-color="white" stop-opacity="0.3"/>
</linearGradient>
<linearGradient id="paint47_linear_19_3" x1="419.974" y1="392.958" x2="480.712" y2="400.971" gradientUnits="userSpaceOnUse">
<stop stop-color="#19543E"/>
<stop offset="0.3071" stop-color="#1D4A39"/>
<stop offset="0.8269" stop-color="#262F2C"/>
<stop offset="1" stop-color="#2A2527"/>
</linearGradient>
<linearGradient id="paint48_linear_19_3" x1="419.707" y1="392.92" x2="454.397" y2="397.205" gradientUnits="userSpaceOnUse">
<stop offset="0.0127" stop-color="white" stop-opacity="0.3"/>
<stop offset="0.9342" stop-color="white" stop-opacity="0"/>
</linearGradient>
<linearGradient id="paint49_linear_19_3" x1="375.189" y1="309.448" x2="266.177" y2="309.448" gradientUnits="userSpaceOnUse">
<stop stop-color="#19543E"/>
<stop offset="0.3071" stop-color="#1D4A39"/>
<stop offset="0.8269" stop-color="#262F2C"/>
<stop offset="1" stop-color="#2A2527"/>
</linearGradient>
<linearGradient id="paint50_linear_19_3" x1="248.025" y1="403.067" x2="380.055" y2="403.067" gradientUnits="userSpaceOnUse">
<stop stop-color="#327F4F"/>
<stop offset="1" stop-color="#59E05A"/>
</linearGradient>
<linearGradient id="paint51_linear_19_3" x1="266.127" y1="197.432" x2="375.189" y2="197.432" gradientUnits="userSpaceOnUse">
<stop stop-color="#327F4F"/>
<stop offset="1" stop-color="#59E05A"/>
</linearGradient>
<linearGradient id="paint52_linear_19_3" x1="375.127" y1="249.861" x2="337.988" y2="249.861" gradientUnits="userSpaceOnUse">
<stop stop-color="#19543E"/>
<stop offset="0.3071" stop-color="#1D4A39"/>
<stop offset="0.8269" stop-color="#262F2C"/>
<stop offset="1" stop-color="#2A2527"/>
</linearGradient>
<linearGradient id="paint53_linear_19_3" x1="329.789" y1="249.861" x2="266.165" y2="249.861" gradientUnits="userSpaceOnUse">
<stop stop-color="#19543E"/>
<stop offset="0.3071" stop-color="#1D4A39"/>
<stop offset="0.8269" stop-color="#262F2C"/>
<stop offset="1" stop-color="#2A2527"/>
</linearGradient>
<linearGradient id="paint54_linear_19_3" x1="375.127" y1="264.241" x2="337.988" y2="264.241" gradientUnits="userSpaceOnUse">
<stop stop-color="#19543E"/>
<stop offset="0.3071" stop-color="#1D4A39"/>
<stop offset="0.8269" stop-color="#262F2C"/>
<stop offset="1" stop-color="#2A2527"/>
</linearGradient>
<linearGradient id="paint55_linear_19_3" x1="329.789" y1="264.241" x2="266.165" y2="264.241" gradientUnits="userSpaceOnUse">
<stop stop-color="#19543E"/>
<stop offset="0.3071" stop-color="#1D4A39"/>
<stop offset="0.8269" stop-color="#262F2C"/>
<stop offset="1" stop-color="#2A2527"/>
</linearGradient>
<linearGradient id="paint56_linear_19_3" x1="375.127" y1="249.861" x2="337.988" y2="249.861" gradientUnits="userSpaceOnUse">
<stop stop-color="#E4F4E9"/>
<stop offset="0.2401" stop-color="#DFF3DF"/>
<stop offset="0.6462" stop-color="#D1EFC4"/>
<stop offset="1" stop-color="#C2EBA8"/>
</linearGradient>
<linearGradient id="paint57_linear_19_3" x1="329.789" y1="249.861" x2="266.165" y2="249.861" gradientUnits="userSpaceOnUse">
<stop stop-color="#E4F4E9"/>
<stop offset="0.2401" stop-color="#DFF3DF"/>
<stop offset="0.6462" stop-color="#D1EFC4"/>
<stop offset="1" stop-color="#C2EBA8"/>
</linearGradient>
<linearGradient id="paint58_linear_19_3" x1="375.127" y1="264.241" x2="337.988" y2="264.241" gradientUnits="userSpaceOnUse">
<stop stop-color="#E4F4E9"/>
<stop offset="0.2401" stop-color="#DFF3DF"/>
<stop offset="0.6462" stop-color="#D1EFC4"/>
<stop offset="1" stop-color="#C2EBA8"/>
</linearGradient>
<linearGradient id="paint59_linear_19_3" x1="329.789" y1="264.241" x2="266.165" y2="264.241" gradientUnits="userSpaceOnUse">
<stop stop-color="#E4F4E9"/>
<stop offset="0.2401" stop-color="#DFF3DF"/>
<stop offset="0.6462" stop-color="#D1EFC4"/>
<stop offset="1" stop-color="#C2EBA8"/>
</linearGradient>
<linearGradient id="paint60_linear_19_3" x1="375.127" y1="277.255" x2="337.988" y2="277.255" gradientUnits="userSpaceOnUse">
<stop stop-color="#E4F4E9"/>
<stop offset="0.2401" stop-color="#DFF3DF"/>
<stop offset="0.6462" stop-color="#D1EFC4"/>
<stop offset="1" stop-color="#C2EBA8"/>
</linearGradient>
<linearGradient id="paint61_linear_19_3" x1="329.789" y1="277.255" x2="266.165" y2="277.255" gradientUnits="userSpaceOnUse">
<stop stop-color="#E4F4E9"/>
<stop offset="0.2401" stop-color="#DFF3DF"/>
<stop offset="0.6462" stop-color="#D1EFC4"/>
<stop offset="1" stop-color="#C2EBA8"/>
</linearGradient>
<linearGradient id="paint62_linear_19_3" x1="375.127" y1="291.635" x2="337.988" y2="291.635" gradientUnits="userSpaceOnUse">
<stop stop-color="#E4F4E9"/>
<stop offset="0.2401" stop-color="#DFF3DF"/>
<stop offset="0.6462" stop-color="#D1EFC4"/>
<stop offset="1" stop-color="#C2EBA8"/>
</linearGradient>
<linearGradient id="paint63_linear_19_3" x1="329.789" y1="291.635" x2="266.165" y2="291.635" gradientUnits="userSpaceOnUse">
<stop stop-color="#E4F4E9"/>
<stop offset="0.2401" stop-color="#DFF3DF"/>
<stop offset="0.6462" stop-color="#D1EFC4"/>
<stop offset="1" stop-color="#C2EBA8"/>
</linearGradient>
<linearGradient id="paint64_linear_19_3" x1="375.127" y1="303.881" x2="337.988" y2="303.881" gradientUnits="userSpaceOnUse">
<stop stop-color="#E4F4E9"/>
<stop offset="0.2401" stop-color="#DFF3DF"/>
<stop offset="0.6462" stop-color="#D1EFC4"/>
<stop offset="1" stop-color="#C2EBA8"/>
</linearGradient>
<linearGradient id="paint65_linear_19_3" x1="329.789" y1="303.881" x2="266.165" y2="303.881" gradientUnits="userSpaceOnUse">
<stop stop-color="#E4F4E9"/>
<stop offset="0.2401" stop-color="#DFF3DF"/>
<stop offset="0.6462" stop-color="#D1EFC4"/>
<stop offset="1" stop-color="#C2EBA8"/>
</linearGradient>
<linearGradient id="paint66_linear_19_3" x1="375.127" y1="318.262" x2="337.988" y2="318.262" gradientUnits="userSpaceOnUse">
<stop stop-color="#E4F4E9"/>
<stop offset="0.2401" stop-color="#DFF3DF"/>
<stop offset="0.6462" stop-color="#D1EFC4"/>
<stop offset="1" stop-color="#C2EBA8"/>
</linearGradient>
<linearGradient id="paint67_linear_19_3" x1="375.127" y1="331.275" x2="337.988" y2="331.275" gradientUnits="userSpaceOnUse">
<stop stop-color="#E4F4E9"/>
<stop offset="0.2401" stop-color="#DFF3DF"/>
<stop offset="0.6462" stop-color="#D1EFC4"/>
<stop offset="1" stop-color="#C2EBA8"/>
</linearGradient>
<linearGradient id="paint68_linear_19_3" x1="329.789" y1="331.275" x2="266.165" y2="331.275" gradientUnits="userSpaceOnUse">
<stop stop-color="#E4F4E9"/>
<stop offset="0.2401" stop-color="#DFF3DF"/>
<stop offset="0.6462" stop-color="#D1EFC4"/>
<stop offset="1" stop-color="#C2EBA8"/>
</linearGradient>
<linearGradient id="paint69_linear_19_3" x1="375.127" y1="345.656" x2="337.988" y2="345.656" gradientUnits="userSpaceOnUse">
<stop stop-color="#E4F4E9"/>
<stop offset="0.2401" stop-color="#DFF3DF"/>
<stop offset="0.6462" stop-color="#D1EFC4"/>
<stop offset="1" stop-color="#C2EBA8"/>
</linearGradient>
<linearGradient id="paint70_linear_19_3" x1="329.789" y1="345.656" x2="266.165" y2="345.656" gradientUnits="userSpaceOnUse">
<stop stop-color="#E4F4E9"/>
<stop offset="0.2401" stop-color="#DFF3DF"/>
<stop offset="0.6462" stop-color="#D1EFC4"/>
<stop offset="1" stop-color="#C2EBA8"/>
</linearGradient>
<linearGradient id="paint71_linear_19_3" x1="375.127" y1="359.305" x2="337.988" y2="359.305" gradientUnits="userSpaceOnUse">
<stop stop-color="#E4F4E9"/>
<stop offset="0.2401" stop-color="#DFF3DF"/>
<stop offset="0.6462" stop-color="#D1EFC4"/>
<stop offset="1" stop-color="#C2EBA8"/>
</linearGradient>
<linearGradient id="paint72_linear_19_3" x1="329.789" y1="359.305" x2="266.165" y2="359.305" gradientUnits="userSpaceOnUse">
<stop stop-color="#E4F4E9"/>
<stop offset="0.2401" stop-color="#DFF3DF"/>
<stop offset="0.6462" stop-color="#D1EFC4"/>
<stop offset="1" stop-color="#C2EBA8"/>
</linearGradient>
<linearGradient id="paint73_linear_19_3" x1="375.127" y1="373.685" x2="337.988" y2="373.685" gradientUnits="userSpaceOnUse">
<stop stop-color="#E4F4E9"/>
<stop offset="0.2401" stop-color="#DFF3DF"/>
<stop offset="0.6462" stop-color="#D1EFC4"/>
<stop offset="1" stop-color="#C2EBA8"/>
</linearGradient>
<linearGradient id="paint74_linear_19_3" x1="329.789" y1="373.685" x2="266.165" y2="373.685" gradientUnits="userSpaceOnUse">
<stop stop-color="#E4F4E9"/>
<stop offset="0.2401" stop-color="#DFF3DF"/>
<stop offset="0.6462" stop-color="#D1EFC4"/>
<stop offset="1" stop-color="#C2EBA8"/>
</linearGradient>
<linearGradient id="paint75_linear_19_3" x1="329.789" y1="318.179" x2="266.165" y2="318.179" gradientUnits="userSpaceOnUse">
<stop stop-color="#E4F4E9"/>
<stop offset="0.2401" stop-color="#DFF3DF"/>
<stop offset="0.6462" stop-color="#D1EFC4"/>
<stop offset="1" stop-color="#C2EBA8"/>
</linearGradient>
<linearGradient id="paint76_linear_19_3" x1="279.091" y1="171.974" x2="302.376" y2="389.298" gradientUnits="userSpaceOnUse">
<stop offset="0.3081" stop-color="white" stop-opacity="0"/>
<stop offset="0.7724" stop-color="white" stop-opacity="0.3"/>
</linearGradient>
<linearGradient id="paint77_linear_19_3" x1="275.082" y1="339.429" x2="194.805" y2="339.429" gradientUnits="userSpaceOnUse">
<stop stop-color="#327F4F"/>
<stop offset="1" stop-color="#59E05A"/>
</linearGradient>
<linearGradient id="paint78_linear_19_3" x1="184.989" y1="343.46" x2="196.111" y2="343.46" gradientUnits="userSpaceOnUse">
<stop stop-color="#327F4F"/>
<stop offset="1" stop-color="#59E05A"/>
</linearGradient>
<linearGradient id="paint79_linear_19_3" x1="213.188" y1="309.857" x2="255.705" y2="309.857" gradientUnits="userSpaceOnUse">
<stop offset="0.0392" stop-color="#327F4F"/>
<stop offset="0.8852" stop-color="#59E15A"/>
</linearGradient>
<linearGradient id="paint80_linear_19_3" x1="230.986" y1="317.836" x2="241.252" y2="315.382" gradientUnits="userSpaceOnUse">
<stop offset="0.0392" stop-color="#327F4F"/>
<stop offset="0.8852" stop-color="#59E15A"/>
</linearGradient>
<linearGradient id="paint81_linear_19_3" x1="233.689" y1="381.237" x2="233.689" y2="356.979" gradientUnits="userSpaceOnUse">
<stop offset="0.0392" stop-color="#327F4F"/>
<stop offset="0.8852" stop-color="#59E15A"/>
</linearGradient>
<linearGradient id="paint82_linear_19_3" x1="228.101" y1="365.678" x2="248.075" y2="373.736" gradientUnits="userSpaceOnUse">
<stop offset="0.0392" stop-color="#327F4F"/>
<stop offset="0.8852" stop-color="#59E15A"/>
</linearGradient>
<linearGradient id="paint83_linear_19_3" x1="279.085" y1="403.851" x2="191.289" y2="403.851" gradientUnits="userSpaceOnUse">
<stop stop-color="#19543E"/>
<stop offset="0.3071" stop-color="#1D4A39"/>
<stop offset="0.8269" stop-color="#262F2C"/>
<stop offset="1" stop-color="#2A2527"/>
</linearGradient>
<linearGradient id="paint84_linear_19_3" x1="192.022" y1="310.267" x2="194.898" y2="310.267" gradientUnits="userSpaceOnUse">
<stop stop-color="#327F4F"/>
<stop offset="1" stop-color="#59E05A"/>
</linearGradient>
<linearGradient id="paint85_linear_19_3" x1="196.31" y1="289.262" x2="206.943" y2="388.503" gradientUnits="userSpaceOnUse">
<stop offset="0.3081" stop-color="white" stop-opacity="0"/>
<stop offset="0.7724" stop-color="white" stop-opacity="0.3"/>
</linearGradient>
<linearGradient id="paint86_linear_19_3" x1="371.191" y1="418.43" x2="431.725" y2="426.404" gradientUnits="userSpaceOnUse">
<stop stop-color="#59E15A"/>
<stop offset="0.168" stop-color="#56DA59"/>
<stop offset="0.4205" stop-color="#4EC557"/>
<stop offset="0.7245" stop-color="#41A353"/>
<stop offset="1" stop-color="#327F4F"/>
</linearGradient>
<linearGradient id="paint87_linear_19_3" x1="371.067" y1="417.722" x2="405.662" y2="422.038" gradientUnits="userSpaceOnUse">
<stop offset="0.0127" stop-color="white" stop-opacity="0.3"/>
<stop offset="0.9342" stop-color="white" stop-opacity="0"/>
</linearGradient>
<linearGradient id="paint88_linear_19_3" x1="55.2652" y1="340" x2="112.265" y2="340" gradientUnits="userSpaceOnUse">
<stop offset="0.0392" stop-color="#327F4F"/>
<stop offset="0.8852" stop-color="#59E15A"/>
</linearGradient>
<linearGradient id="paint89_linear_19_3" x1="57.3593" y1="387.302" x2="66.6822" y2="387.302" gradientUnits="userSpaceOnUse">
<stop stop-color="#19543E"/>
<stop offset="0.3071" stop-color="#1D4A39"/>
<stop offset="0.8269" stop-color="#262F2C"/>
<stop offset="1" stop-color="#2A2527"/>
</linearGradient>
<linearGradient id="paint90_linear_19_3" x1="31.0847" y1="344.107" x2="77.4298" y2="344.107" gradientUnits="userSpaceOnUse">
<stop offset="0.0392" stop-color="#327F4F"/>
<stop offset="0.8852" stop-color="#59E15A"/>
</linearGradient>
<linearGradient id="paint91_linear_19_3" x1="39.2748" y1="346.298" x2="64.7819" y2="343.097" gradientUnits="userSpaceOnUse">
<stop stop-color="white" stop-opacity="0.3"/>
<stop offset="0.8544" stop-color="white" stop-opacity="0"/>
</linearGradient>
<linearGradient id="paint92_linear_19_3" x1="668.955" y1="358" x2="598.955" y2="358" gradientUnits="userSpaceOnUse">
<stop offset="0.0392" stop-color="#327F4F"/>
<stop offset="0.8852" stop-color="#59E15A"/>
</linearGradient>
<linearGradient id="paint93_linear_19_3" x1="698.735" y1="363.499" x2="641.733" y2="363.499" gradientUnits="userSpaceOnUse">
<stop offset="0.0392" stop-color="#327F4F"/>
<stop offset="0.8852" stop-color="#59E15A"/>
</linearGradient>
<linearGradient id="paint94_linear_19_3" x1="688.658" y1="366.195" x2="656.919" y2="362.161" gradientUnits="userSpaceOnUse">
<stop stop-color="white" stop-opacity="0.3"/>
<stop offset="0.8544" stop-color="white" stop-opacity="0"/>
</linearGradient>
<linearGradient id="paint95_linear_19_3" x1="26.7818" y1="393.981" x2="150.927" y2="410.36" gradientUnits="userSpaceOnUse">
<stop stop-color="#19543E"/>
<stop offset="0.3071" stop-color="#1D4A39"/>
<stop offset="0.8269" stop-color="#262F2C"/>
<stop offset="1" stop-color="#2A2527"/>
</linearGradient>
<linearGradient id="paint96_linear_19_3" x1="26.2368" y1="393.904" x2="97.1408" y2="402.663" gradientUnits="userSpaceOnUse">
<stop offset="0.0127" stop-color="white" stop-opacity="0.3"/>
<stop offset="0.9342" stop-color="white" stop-opacity="0"/>
</linearGradient>
<linearGradient id="paint97_linear_19_3" x1="848.557" y1="461.977" x2="65.8356" y2="600.543" gradientUnits="userSpaceOnUse">
<stop stop-color="#C2EBA8"/>
<stop offset="0.9744" stop-color="white" stop-opacity="0"/>
</linearGradient>
<linearGradient id="paint98_linear_19_3" x1="646.22" y1="393.476" x2="735.135" y2="405.207" gradientUnits="userSpaceOnUse">
<stop stop-color="#59E15A"/>
<stop offset="0.168" stop-color="#56DA59"/>
<stop offset="0.4205" stop-color="#4EC557"/>
<stop offset="0.7245" stop-color="#41A353"/>
<stop offset="1" stop-color="#327F4F"/>
</linearGradient>
<linearGradient id="paint99_linear_19_3" x1="745.034" y1="397.179" x2="687.155" y2="397.179" gradientUnits="userSpaceOnUse">
<stop offset="0.0127" stop-color="white" stop-opacity="0.3"/>
<stop offset="0.9342" stop-color="white" stop-opacity="0"/>
</linearGradient>
<linearGradient id="paint100_linear_19_3" x1="291.69" y1="467.923" x2="205.063" y2="479.352" gradientUnits="userSpaceOnUse">
<stop stop-color="#59E15A"/>
<stop offset="0.168" stop-color="#56DA59"/>
<stop offset="0.4205" stop-color="#4EC557"/>
<stop offset="0.7245" stop-color="#41A353"/>
<stop offset="1" stop-color="#327F4F"/>
</linearGradient>
<linearGradient id="paint101_linear_19_3" x1="195.418" y1="471.531" x2="251.808" y2="471.531" gradientUnits="userSpaceOnUse">
<stop offset="0.0127" stop-color="white" stop-opacity="0.3"/>
<stop offset="0.9342" stop-color="white" stop-opacity="0"/>
</linearGradient>
<clipPath id="clip0_19_3">
<rect width="792" height="500" fill="white"/>
</clipPath>
</defs>
</svg>
