<svg width="288" height="464" viewBox="0 0 288 464" fill="none" xmlns="http://www.w3.org/2000/svg">
<g clip-path="url(#clip0_19_620)">
<path d="M137.632 586.062C137.632 586.062 152.26 525.333 152.449 447.283C152.497 427.808 166.93 340.971 172.075 304.316C176.521 272.483 171.027 245.913 171.027 245.913L114.393 255.971C114.393 255.971 102.309 398.046 102.199 425.983C102.031 466.484 108.361 475.559 108.361 475.559L109.156 584.22L137.632 586.062Z" fill="url(#paint0_linear_19_620)"/>
<path d="M202.972 252.29C202.972 252.29 215.892 262.835 223.475 323.154C229.19 368.642 222.319 401.056 228.293 433.931C235.753 474.872 244.934 590.765 244.934 590.765L218.69 593.97C218.69 593.97 193.114 487.914 186.047 478.795C176.897 466.992 155.332 345.177 150.12 279.203C148.322 256.39 171.789 258.39 202.972 252.29Z" fill="url(#paint1_linear_19_620)"/>
<path d="M215.516 279.831C218.462 290.139 221.449 304.136 223.892 323.056C229.222 364.315 223.894 394.774 227.512 424.615L206.044 431.88C215.682 321.359 193.852 285.311 193.852 285.311L215.516 279.831Z" fill="url(#paint2_linear_19_620)"/>
<path d="M56.3856 102.434C56.2673 102.002 68.7922 78.8558 68.7922 78.8558L86.2171 79.0332L79.6118 107.071L56.3856 102.434Z" fill="url(#paint3_linear_19_620)"/>
<path d="M56.7447 91.6087C56.7447 91.6087 34.1718 132.971 36.1191 147.253C38.0665 161.535 45.2083 169.326 62.5206 172.789C79.8329 176.251 120.083 176.528 120.083 176.528L111.395 123.038C111.395 123.038 74.0006 132.986 74.2062 132.756L82.9321 100.004L56.7447 91.6087Z" fill="white"/>
<path d="M110.611 123.293C110.611 123.293 125.262 118.044 128.053 118.044C130.844 118.044 148.239 118.497 148.239 118.497L161.306 116.521L192.94 117.777L205.584 123.524L227.328 135.209L210.008 210.807L219.236 290.314L108.71 291.398L114.553 166.086L110.611 123.293Z" fill="white"/>
<path d="M155.778 291.695C155.778 291.695 155.758 291.577 155.738 291.342C155.72 291.091 155.695 290.746 155.661 290.303C155.6 289.37 155.513 288.026 155.4 286.304C155.255 284.567 155.241 282.438 155.192 279.966C155.174 278.73 155.131 277.407 155.131 276.006C155.152 274.604 155.174 273.123 155.196 271.567C155.258 265.342 155.666 257.941 156.224 249.732C156.858 241.528 157.684 232.519 158.743 223.085C160.865 204.21 163.249 187.183 164.91 174.853C165.73 168.7 166.395 163.714 166.856 160.248C167.077 158.536 167.251 157.201 167.37 156.276C167.432 155.835 167.479 155.492 167.514 155.244C167.548 155.012 167.576 154.893 167.576 154.893C167.576 154.893 167.575 155.014 167.552 155.248C167.527 155.497 167.491 155.842 167.446 156.285C167.344 157.212 167.194 158.55 167.003 160.267C166.602 163.722 165.979 168.719 165.175 174.888C163.583 187.228 161.241 204.258 159.119 223.126C158.06 232.557 157.224 241.559 156.57 249.757C155.994 257.958 155.558 265.353 155.462 271.571C155.43 273.125 155.399 274.605 155.371 276.006C155.362 277.407 155.395 278.727 155.403 279.962C155.433 282.431 155.424 284.56 155.547 286.295C155.628 288.019 155.692 289.365 155.737 290.295C155.754 290.74 155.766 291.087 155.776 291.337C155.783 291.574 155.778 291.695 155.778 291.695Z" fill="#263238"/>
<path d="M94.318 47.8148C94.318 47.8148 94.4602 47.7839 94.6771 47.6895C95.2135 47.4558 96.5484 46.6743 97.1426 45.0789C97.5003 44.1186 97.075 43.0456 96.1556 42.5937C95.4543 42.2487 94.5813 41.8417 93.8519 41.5686C92.3608 41.0096 80.8005 37.4668 79.0305 38.399C77.2591 39.3311 75.1147 41.9417 73.6235 43.5258C72.1323 45.1099 71.7592 45.6703 71.7592 45.6703C71.7592 45.6703 66.0734 45.0184 66.2592 50.331C66.2592 50.331 59.454 53.0346 60.8522 58.0684C60.8522 58.0684 61.4056 59.5596 60.6635 60.12C59.9201 60.679 58.2431 63.6627 59.6413 66.8323C61.0395 70.0019 65.9804 79.6035 65.9804 79.6035C65.9804 79.6035 69.4288 86.8749 76.6072 85.3837C83.7856 83.8926 87.4213 77.2732 87.4213 77.2732C87.4213 77.2732 93.8534 69.816 94.5053 66.1804C95.1572 62.5447 98.2339 61.2394 100.844 57.884C103.455 54.5285 105.971 50.7999 102.896 48.7484C99.8194 46.6982 96.5568 49.9607 94.7855 52.477C93.0141 54.9946 90.3106 57.2306 88.8195 55.9267C87.3283 54.6214 81.7073 50.5197 81.7073 50.5197L82.9464 46.418L94.318 47.8148Z" fill="url(#paint4_linear_19_620)"/>
<path d="M99.0672 90.9203H97.8618C95.561 90.9203 93.6968 89.056 93.6968 86.7552V36.1024C93.6968 35.7307 93.9981 35.4294 94.3698 35.4294H102.559C102.931 35.4294 103.232 35.7307 103.232 36.1024V86.7552C103.232 89.056 101.367 90.9203 99.0672 90.9203Z" fill="white"/>
<path d="M98.465 89.5981C96.6204 89.5981 95.125 88.1027 95.125 86.2581V64.7582C95.125 64.561 95.2855 64.4005 95.4841 64.4005H101.447C101.646 64.4005 101.805 64.561 101.805 64.7582V86.2581C101.805 88.1027 100.31 89.5981 98.465 89.5981Z" fill="url(#paint5_linear_19_620)"/>
<path d="M66.1524 77.9181C66.1524 78.3011 59.6429 87.1283 61.0467 88.5223C62.4506 89.9163 86.4456 95.7359 86.7005 94.9319C86.9553 94.1279 88.5549 75.6905 88.5549 75.6905L66.1524 77.9181Z" fill="url(#paint6_linear_19_620)"/>
<path d="M71.7593 45.6702C71.7593 45.6702 80.419 46.1053 82.945 46.4164C85.4725 46.7276 98.1298 53.5934 97.3736 55.0226C96.6175 56.4504 96.3655 58.3837 92.9213 57.9627C89.4771 57.5417 83.5956 54.0975 83.5956 54.0975" fill="url(#paint7_linear_19_620)"/>
<path d="M83.5956 54.0976C83.6026 54.0863 83.742 54.1539 84.0067 54.2877C84.3066 54.4397 84.6883 54.6355 85.1586 54.8749C86.1625 55.3747 87.6185 56.1069 89.4842 56.8335C90.4163 57.1883 91.4583 57.5572 92.6031 57.7502C93.1733 57.8487 93.7802 57.8882 94.3815 57.8177C94.9841 57.7558 95.5769 57.5277 96.012 57.0813C96.4485 56.6321 96.7118 56.0154 97.0005 55.3775C97.061 55.2283 97.1765 55.0354 97.2117 54.9185C97.2483 54.8692 97.1722 54.7115 97.0976 54.5862C96.9146 54.3201 96.6527 54.0793 96.3936 53.8427C95.3094 52.9219 94.0449 52.1108 92.7439 51.3152C90.1234 49.741 87.534 48.3752 85.1093 47.3205C84.5024 47.0628 83.9011 46.8221 83.3112 46.6615C82.7395 46.5165 82.1002 46.4996 81.5229 46.4335C80.35 46.3405 79.2531 46.2532 78.2477 46.1729C76.2792 46.0321 74.6684 45.9181 73.4997 45.8336C72.9716 45.7913 72.545 45.7562 72.2085 45.7294C71.9142 45.7013 71.7593 45.6815 71.7593 45.6689C71.7607 45.6562 71.9156 45.6505 72.2127 45.6534C72.5492 45.6618 72.9787 45.6731 73.5067 45.6872C74.6303 45.7252 76.2567 45.7956 78.2646 45.9054C79.2685 45.9617 80.3683 46.0279 81.5482 46.1194C82.1438 46.1814 82.738 46.1828 83.3928 46.3377C84.0208 46.501 84.6263 46.7418 85.2444 46.9981C87.7029 48.0471 90.3008 49.4059 92.9396 50.9914C94.2519 51.794 95.5192 52.6065 96.6386 53.564C96.9104 53.8146 97.1835 54.061 97.4032 54.382C97.4891 54.5552 97.644 54.7369 97.5553 55.0368C97.4764 55.2494 97.399 55.3564 97.3272 55.5282C97.0399 56.1492 96.7611 56.8138 96.2598 57.3249C96.0106 57.5798 95.7065 57.7657 95.3939 57.9107C95.0728 58.0318 94.7447 58.1176 94.4209 58.1486C93.7703 58.2176 93.1437 58.1684 92.5523 58.0599C91.3667 57.8459 90.3234 57.4573 89.3856 57.0827C87.5157 56.3181 86.0766 55.5479 85.0896 55.0058C84.5981 54.7312 84.2208 54.5102 83.9687 54.3539C83.7181 54.199 83.5899 54.1089 83.5956 54.0976Z" fill="url(#paint8_linear_19_620)"/>
<path d="M69.8175 50.6534C70.0696 50.7379 78.7237 50.6858 80.2359 51.8461C81.7482 53.0064 90.7373 58.8865 90.3177 60.0636C89.8981 61.2394 88.8055 62.6686 85.4444 62.332C82.0833 61.9955 75.5315 59.0555 75.5315 59.0555L65.4497 59.223" fill="url(#paint9_linear_19_620)"/>
<path d="M65.4497 70.5637L68.6418 66.2789H70.8257C70.8257 66.2789 70.8581 69.4471 72.7801 70.1652C74.8951 70.9565 75.5146 69.9582 76.2032 67.4546C76.6735 65.7452 78.266 61.9124 76.3707 60.2903C75.7427 59.7539 68.8249 59.1357 68.8249 59.1357" fill="url(#paint10_linear_19_620)"/>
<path d="M89.5347 40.2336L98.6732 43.5511C98.6732 43.5511 100.399 49.4566 94.318 47.8162L88.9617 46.287" fill="url(#paint11_linear_19_620)"/>
<path d="M211.511 260.37L150.402 279.336L123.641 193.116L184.749 174.149L211.511 260.37Z" fill="url(#paint12_linear_19_620)"/>
<path d="M170.688 184.435L138.985 194.274L135.547 183.193L167.25 173.353L170.688 184.435Z" fill="url(#paint13_linear_19_620)"/>
<path d="M172.251 229.596C172.251 229.596 157.572 222.58 154.061 221.566C151.192 220.736 142.101 224.152 139.607 225.687C139.036 226.039 138.606 226.573 138.381 227.205L136.267 233.12C136.267 233.12 138.803 236.397 142.292 232.68L143.085 231.246L147.999 229.067L152.622 231.269L142.975 235.34C142.975 235.34 136.918 234.368 135.845 234.844C134.772 235.318 133.106 238.525 136.581 241.331C136.581 241.331 133.512 244.073 136.907 248.394C136.907 248.394 134.275 250.547 139.571 255.113L140.206 255.622C140.206 255.622 137.726 258.497 141.252 260.885C144.778 263.273 152.804 260.867 154.336 260.091C155.868 259.314 176.1 252.462 176.1 252.462L188.078 251.899L185.592 226.172L172.251 229.596Z" fill="url(#paint14_linear_19_620)"/>
<path d="M147.557 242.442C147.573 242.481 147.002 242.769 146.007 243.028C145.016 243.288 143.585 243.477 142.015 243.342C140.445 243.201 139.069 242.767 138.139 242.338C137.204 241.908 136.693 241.525 136.715 241.49C136.763 241.372 138.968 242.717 142.049 242.964C145.126 243.257 147.532 242.318 147.557 242.442Z" fill="#263238"/>
<path d="M145.835 250.788C145.864 250.889 143.606 251.221 140.942 250.519C138.263 249.868 136.446 248.481 136.518 248.411C136.574 248.316 138.425 249.52 141.035 250.153C143.632 250.838 145.831 250.682 145.835 250.788Z" fill="#263238"/>
<path d="M148.395 256.531C148.423 256.627 146.495 257.086 144.095 256.865C141.69 256.675 139.872 255.883 139.916 255.796C139.952 255.691 141.778 256.303 144.127 256.488C146.473 256.704 148.378 256.423 148.395 256.531Z" fill="#263238"/>
<path d="M225.051 134.297C226.144 134.617 241.223 137.737 248.341 183.698C251.779 205.9 254.259 216.211 253.979 225.442C253.66 235.865 250.617 243.608 239.763 246.686L182.937 257.268L176.943 228.416L220.789 215.993L215.651 183.673L225.051 134.297Z" fill="white"/>
<path d="M148.259 119.065L142.782 129.747L153.174 129.618C153.174 129.618 142.509 131.209 149.01 145.226C155.51 159.243 164.835 174.21 164.835 174.21L159.562 117.336L148.259 119.065Z" fill="url(#paint15_linear_19_620)"/>
<path d="M186.333 112.694L192.811 117.96L205.459 123.711L200.728 135.4L190.723 134.074L194.724 142.493L164.835 174.21L186.333 112.694Z" fill="url(#paint16_linear_19_620)"/>
<path d="M159.032 120.564L164.841 174.21L192.692 117.336L159.032 120.564Z" fill="url(#paint17_linear_19_620)"/>
<path d="M197.334 82.516L193.223 117.969L186.289 126.562C178.351 136.401 162.744 133.344 159.032 121.224L160.284 101.634L197.334 82.516Z" fill="url(#paint18_linear_19_620)"/>
<path d="M160.525 109.496C160.525 109.496 170.043 109.828 179.924 105.73C179.924 105.73 168.848 116.352 160.193 114.874L160.525 109.496Z" fill="#C4142A"/>
<path d="M144.562 52.9454C144.562 52.9454 134.728 107.833 161.293 109.159C187.859 110.486 196.361 86.1269 196.361 86.1269C196.361 86.1269 203.778 87.8427 204.274 80.033C204.77 72.2234 197.552 71.2798 195.731 75.0288L193.24 39.4149L166.736 37.2495L144.562 52.9454Z" fill="url(#paint19_linear_19_620)"/>
<path d="M197.309 67.323C197.309 67.323 195.691 76.0336 196.186 77.2559C196.68 78.4782 192.762 78.7193 192.819 69.8328C192.878 60.9464 186.184 59.7454 187.731 53.9842C189.337 48.0032 187.228 44.3888 182.114 46.6745C177.001 48.9603 178.548 49.1843 170.341 48.0641C160.639 46.7397 161.444 51.1341 149.916 52.7619C138.386 54.3897 132.807 43.6415 137.459 36.4623C142.11 29.2817 147.399 33.5498 154.01 26.6344C160.621 19.7189 166.676 18.9277 174.404 25.6077C182.132 32.2892 190.702 24.869 195.619 30.1552C200.536 35.4413 200.99 38.0235 200.026 42.5156C199.064 47.0077 203.838 49.4381 197.309 67.323Z" fill="url(#paint20_linear_19_620)"/>
<path d="M161.969 167.103C161.963 167.106 161.93 167.061 161.869 166.968C161.799 166.855 161.713 166.718 161.609 166.554C161.371 166.158 161.045 165.62 160.637 164.941C159.791 163.504 158.595 161.475 157.127 158.98C155.651 156.447 153.904 153.445 151.963 150.113C151.003 148.439 149.947 146.707 148.996 144.819C148.059 142.935 147.224 140.861 146.972 138.605C146.734 136.579 147.103 134.531 147.974 132.799C148.833 131.067 150.302 129.652 152.052 129.106L152.103 129.451C148.633 129.373 145.461 129.303 142.711 129.243L142.477 129.237L142.585 129.031C144.224 125.922 145.564 123.383 146.51 121.59C146.97 120.735 147.335 120.059 147.601 119.566C147.721 119.355 147.816 119.183 147.895 119.044C147.963 118.927 148.002 118.869 148.008 118.872C148.014 118.875 147.988 118.94 147.933 119.064C147.864 119.209 147.78 119.386 147.676 119.606C147.426 120.107 147.086 120.795 146.653 121.664C145.734 123.472 144.434 126.031 142.843 129.165L142.718 128.954C145.469 128.996 148.642 129.044 152.113 129.097L153.202 129.114L152.165 129.444C150.52 129.965 149.132 131.303 148.309 132.968C147.476 134.633 147.119 136.608 147.35 138.563C147.595 140.752 148.408 142.787 149.332 144.654C150.268 146.522 151.317 148.26 152.269 149.94C154.182 153.285 155.906 156.302 157.362 158.847C158.787 161.368 159.946 163.417 160.768 164.87C161.151 165.562 161.454 166.112 161.678 166.517C161.769 166.69 161.844 166.833 161.906 166.949C161.952 167.048 161.975 167.1 161.969 167.103Z" fill="#263238"/>
<path d="M205.531 124.418C205.538 124.421 205.515 124.489 205.464 124.617C205.402 124.768 205.326 124.953 205.233 125.184C205.008 125.71 204.7 126.431 204.308 127.343C203.476 129.238 202.298 131.921 200.854 135.203L200.811 135.301L200.702 135.287C197.876 134.909 194.583 134.465 190.989 133.983L191.175 133.736C192.328 136.322 193.584 139.143 194.894 142.079L194.947 142.2L194.852 142.291C194.353 142.773 193.818 143.288 193.28 143.806C186.738 150.081 180.817 155.759 176.503 159.898C174.363 161.925 172.621 163.576 171.389 164.743C170.797 165.292 170.33 165.727 169.985 166.047C169.836 166.181 169.715 166.289 169.613 166.379C169.527 166.452 169.482 166.488 169.478 166.483C169.474 166.479 169.51 166.434 169.587 166.351C169.679 166.254 169.794 166.136 169.933 165.992C170.265 165.66 170.717 165.208 171.287 164.637C172.5 163.449 174.212 161.77 176.319 159.705C180.613 155.545 186.507 149.838 193.02 143.533C193.559 143.015 194.093 142.5 194.593 142.018L194.552 142.231C193.251 139.292 192 136.469 190.854 133.879L190.725 133.586L191.04 133.631C194.631 134.138 197.921 134.602 200.744 135L200.592 135.085C202.084 131.823 203.302 129.159 204.162 127.277C204.583 126.378 204.915 125.667 205.157 125.151C205.267 124.927 205.355 124.746 205.426 124.6C205.488 124.478 205.523 124.416 205.531 124.418Z" fill="#263238"/>
</g>
<defs>
<linearGradient id="paint0_linear_19_620" x1="176.712" y1="415.988" x2="105.096" y2="415.988" gradientUnits="userSpaceOnUse">
<stop offset="0.2806" stop-color="#2A2527"/>
<stop offset="1" stop-color="#19543E"/>
</linearGradient>
<linearGradient id="paint1_linear_19_620" x1="244.934" y1="423.131" x2="150.024" y2="423.131" gradientUnits="userSpaceOnUse">
<stop stop-color="#2A2527"/>
<stop offset="0.9482" stop-color="#19543E"/>
</linearGradient>
<linearGradient id="paint2_linear_19_620" x1="188.089" y1="289.546" x2="243.196" y2="459.667" gradientUnits="userSpaceOnUse">
<stop offset="0.1747" stop-color="white" stop-opacity="0"/>
<stop offset="1" stop-color="white" stop-opacity="0.3"/>
</linearGradient>
<linearGradient id="paint3_linear_19_620" x1="56.3852" y1="92.9637" x2="86.218" y2="92.9637" gradientUnits="userSpaceOnUse">
<stop offset="0.016" stop-color="#EFC1A9"/>
<stop offset="1" stop-color="#E69494"/>
</linearGradient>
<linearGradient id="paint4_linear_19_620" x1="59.1019" y1="61.9139" x2="104.311" y2="61.9139" gradientUnits="userSpaceOnUse">
<stop offset="0.1239" stop-color="#F6B141"/>
<stop offset="0.3145" stop-color="#F4A740"/>
<stop offset="0.6382" stop-color="#F08C3C"/>
<stop offset="1" stop-color="#E96736"/>
</linearGradient>
<linearGradient id="paint5_linear_19_620" x1="95.1251" y1="76.9994" x2="101.805" y2="76.9994" gradientUnits="userSpaceOnUse">
<stop stop-color="#59E15A"/>
<stop offset="0.168" stop-color="#56DA59"/>
<stop offset="0.4205" stop-color="#4EC557"/>
<stop offset="0.7245" stop-color="#41A353"/>
<stop offset="1" stop-color="#327F4F"/>
</linearGradient>
<linearGradient id="paint6_linear_19_620" x1="66.5555" y1="79.2077" x2="92.7866" y2="88.6955" gradientUnits="userSpaceOnUse">
<stop stop-color="#F6B141"/>
<stop offset="0.2176" stop-color="#F4A740"/>
<stop offset="0.587" stop-color="#F08C3C"/>
<stop offset="1" stop-color="#E96736"/>
</linearGradient>
<linearGradient id="paint7_linear_19_620" x1="71.7596" y1="51.8456" x2="97.4071" y2="51.8456" gradientUnits="userSpaceOnUse">
<stop stop-color="#F6B141"/>
<stop offset="0.2176" stop-color="#F4A740"/>
<stop offset="0.587" stop-color="#F08C3C"/>
<stop offset="1" stop-color="#E96736"/>
</linearGradient>
<linearGradient id="paint8_linear_19_620" x1="71.7596" y1="51.9176" x2="97.5827" y2="51.9176" gradientUnits="userSpaceOnUse">
<stop stop-color="#F6B141"/>
<stop offset="0.2176" stop-color="#F4A740"/>
<stop offset="0.587" stop-color="#F08C3C"/>
<stop offset="1" stop-color="#E96736"/>
</linearGradient>
<linearGradient id="paint9_linear_19_620" x1="65.4493" y1="56.5171" x2="90.3315" y2="56.5171" gradientUnits="userSpaceOnUse">
<stop stop-color="#F6B141"/>
<stop offset="0.2176" stop-color="#F4A740"/>
<stop offset="0.587" stop-color="#F08C3C"/>
<stop offset="1" stop-color="#E96736"/>
</linearGradient>
<linearGradient id="paint10_linear_19_620" x1="69.2639" y1="64.8508" x2="81.0912" y2="64.8508" gradientUnits="userSpaceOnUse">
<stop stop-color="#F6B141"/>
<stop offset="0.2176" stop-color="#F4A740"/>
<stop offset="0.587" stop-color="#F08C3C"/>
<stop offset="1" stop-color="#E96736"/>
</linearGradient>
<linearGradient id="paint11_linear_19_620" x1="83.0763" y1="44.1678" x2="93.0148" y2="44.1678" gradientUnits="userSpaceOnUse">
<stop stop-color="#F6B141"/>
<stop offset="0.2176" stop-color="#F4A740"/>
<stop offset="0.587" stop-color="#F08C3C"/>
<stop offset="1" stop-color="#E96736"/>
</linearGradient>
<linearGradient id="paint12_linear_19_620" x1="123.641" y1="226.743" x2="211.511" y2="226.743" gradientUnits="userSpaceOnUse">
<stop stop-color="#2A2527"/>
<stop offset="0.9482" stop-color="#19543E"/>
</linearGradient>
<linearGradient id="paint13_linear_19_620" x1="135.546" y1="183.814" x2="170.688" y2="183.814" gradientUnits="userSpaceOnUse">
<stop stop-color="#2A2527"/>
<stop offset="0.9482" stop-color="#19543E"/>
</linearGradient>
<linearGradient id="paint14_linear_19_620" x1="134.49" y1="241.676" x2="188.078" y2="241.676" gradientUnits="userSpaceOnUse">
<stop stop-color="#F6B141"/>
<stop offset="0.2176" stop-color="#F4A740"/>
<stop offset="0.587" stop-color="#F08C3C"/>
<stop offset="1" stop-color="#E96736"/>
</linearGradient>
<linearGradient id="paint15_linear_19_620" x1="142.782" y1="145.774" x2="164.835" y2="145.774" gradientUnits="userSpaceOnUse">
<stop offset="0.0015" stop-color="#E4F7D7"/>
<stop offset="0.8019" stop-color="white"/>
</linearGradient>
<linearGradient id="paint16_linear_19_620" x1="164.835" y1="143.452" x2="205.459" y2="143.452" gradientUnits="userSpaceOnUse">
<stop offset="0.0015" stop-color="#E4F7D7"/>
<stop offset="0.8019" stop-color="white"/>
</linearGradient>
<linearGradient id="paint17_linear_19_620" x1="159.032" y1="145.773" x2="192.692" y2="145.773" gradientUnits="userSpaceOnUse">
<stop stop-color="#F6B141"/>
<stop offset="0.2176" stop-color="#F4A740"/>
<stop offset="0.587" stop-color="#F08C3C"/>
<stop offset="1" stop-color="#E96736"/>
</linearGradient>
<linearGradient id="paint18_linear_19_620" x1="197.335" y1="107.471" x2="159.032" y2="107.471" gradientUnits="userSpaceOnUse">
<stop offset="0.016" stop-color="#EFC1A9"/>
<stop offset="1" stop-color="#E69494"/>
</linearGradient>
<linearGradient id="paint19_linear_19_620" x1="204.3" y1="73.2312" x2="142.783" y2="73.2312" gradientUnits="userSpaceOnUse">
<stop offset="0.016" stop-color="#EFC1A9"/>
<stop offset="1" stop-color="#E69494"/>
</linearGradient>
<linearGradient id="paint20_linear_19_620" x1="200.816" y1="49.4363" x2="135.819" y2="49.4363" gradientUnits="userSpaceOnUse">
<stop stop-color="#2A2527"/>
<stop offset="1" stop-color="#19543E"/>
</linearGradient>
<clipPath id="clip0_19_620">
<rect width="288" height="464" fill="white"/>
</clipPath>
</defs>
</svg>
