<svg width="752" height="752" viewBox="0 0 752 752" fill="none" xmlns="http://www.w3.org/2000/svg">
<path fill-rule="evenodd" clip-rule="evenodd" d="M522.149 141.619C507.352 144.766 494.299 147.735 493.141 148.218C488.663 150.083 489.552 158.565 494.386 160.098C495.561 160.469 505.368 158.926 516.183 156.665C526.996 154.406 535.957 152.669 536.093 152.806C536.231 152.943 527.591 162.466 516.895 173.968C467.368 227.228 408.327 274.361 343.383 312.484C334.176 317.889 312.921 329.069 296.15 337.329C279.38 345.588 265.528 352.432 265.369 352.536C264.722 352.958 268.079 365.09 268.841 365.09C269.295 365.09 278.353 361.059 288.97 356.131C377.516 315.041 464.562 251.521 528.755 181.15C537.179 171.916 544.259 164.55 544.489 164.779C544.719 165.009 544.036 172.813 542.969 182.122C541.903 191.429 541.364 200.374 541.772 201.997C542.989 206.84 551.995 207.562 553.762 202.958C554.68 200.566 560.414 148.751 560.414 142.841C560.414 133.967 558.429 133.904 522.149 141.619ZM331.094 143.521C328.564 145.291 328.436 146.182 328.436 161.955C328.436 175.43 328.787 178.88 330.314 180.407C331.834 181.925 335.231 182.284 348.066 182.284C368.764 182.284 367.896 183.188 367.896 161.648C367.896 141.041 368.508 141.661 348.166 141.661C337.055 141.661 333.142 142.087 331.094 143.521ZM372.679 150.024C369.864 152.837 369.632 155.841 371.982 159.056C373.466 161.086 375.472 161.424 388.081 161.773C402.152 162.161 402.553 162.1 405.518 159.138C409.176 155.484 409.336 153.198 406.16 150.024C404.034 147.9 402.175 147.635 389.42 147.635C376.665 147.635 374.805 147.9 372.679 150.024ZM372.267 165.353C369.671 168.219 369.755 171.874 372.475 174.333C374.374 176.05 378.217 176.31 401.685 176.31C424.658 176.31 428.991 176.028 430.589 174.433C433.108 171.915 432.965 167.571 430.28 165.145C428.383 163.428 424.545 163.167 401.169 163.167C376.605 163.167 374.072 163.359 372.267 165.353ZM110.522 171.648C105.89 174.278 105.864 176.572 110.225 197.725C118.743 239.053 125.125 252.651 139.257 259.585C145.601 262.697 147.023 262.921 159.446 262.743L172.809 262.552L175.849 269.912C180.284 280.648 182.876 290.76 182.041 294.081C181.331 296.91 181.496 296.986 188.304 296.986H195.297L198.192 290.79C199.785 287.382 202.546 282.577 204.329 280.112L207.571 275.629L215.467 280.919C234.45 293.639 249.293 291.876 268.58 274.61C278.4 265.819 305.2 235.764 306.023 232.618C307.225 228.026 303.705 225.503 290.083 221.192C270.42 214.971 253.775 212.543 243.204 214.354C224.536 217.553 215.464 226.529 205.276 251.882C200.171 264.586 190.923 277.267 190.923 271.563C190.923 270.723 189.079 266.191 186.826 261.493L182.73 252.951L184.559 242.411C190.609 207.566 178.957 189.378 143.471 178.267C135.092 175.645 129.811 174.297 114.992 171.001C113.677 170.709 111.666 170.999 110.522 171.648ZM330.528 191.938C328.688 193.009 328.436 195.237 328.436 210.395C328.436 232.317 327.763 231.644 349.123 231.072C359.436 230.795 364.55 230.175 365.923 229.035C367.582 227.656 367.896 224.776 367.896 210.999C367.896 189.776 368.735 190.636 348.071 190.684C339.574 190.704 331.679 191.268 330.528 191.938ZM372.267 198.807C369.657 201.688 369.758 205.331 372.515 207.825C374.407 209.534 377.063 209.788 390.109 209.503C405.315 209.171 405.493 209.135 407.241 206.019C408.825 203.197 408.796 202.548 406.958 199.746C404.925 196.646 404.792 196.622 389.578 196.622C376.242 196.622 373.987 196.906 372.267 198.807ZM136.815 207.471C132.532 209.964 134.397 213.977 144.63 224.282C150.079 229.768 156.87 237.349 159.721 241.129C162.572 244.908 165.616 247.999 166.485 247.999C168.647 247.999 171.791 243.276 171.791 240.028C171.791 236.942 163.9 227.167 151.457 214.843C142.712 206.18 140.738 205.188 136.815 207.471ZM375.071 211.789C370.146 213.548 368.938 219.169 372.679 222.908C374.925 225.152 376.665 225.297 401.111 225.297C430.603 225.297 432.92 224.735 432.235 217.743C431.631 211.567 428.941 210.985 401.377 211.072C387.895 211.114 376.057 211.436 375.071 211.789ZM542.477 405.696V582.545H577.158H611.84L611.536 406.012L611.234 229.479L576.856 229.163L542.477 228.845V405.696ZM242.157 240.917C230.786 244.105 221.232 248.577 219.706 251.424C218.273 254.102 216.527 264.726 217.521 264.726C217.859 264.726 221.296 262.823 225.157 260.495C229.018 258.168 236.751 254.861 242.341 253.145C254.358 249.456 255.731 248.553 255.256 244.652C254.612 239.363 251.187 238.385 242.157 240.917ZM418.118 444.545V582.545H452.795H487.472V444.545V306.544H452.795H418.118V444.545ZM176.487 308.958C161.015 311.355 144.689 320.147 134.328 331.662C127.624 339.113 119.886 354.133 117.949 363.453C115.868 373.47 116.988 392.745 120.157 401.451C127.757 422.33 144.915 439.117 165.164 445.483C177.394 449.327 196.53 449.23 208.654 445.262C228.964 438.614 246.047 421.92 253.132 401.798C256.808 391.356 257.666 372.05 254.92 361.506C245.944 327.022 210.999 303.61 176.487 308.958ZM183.45 320.978C182.225 321.691 181.357 323.619 181.357 325.628C181.357 328.446 180.656 329.291 177.439 330.352C164.126 334.743 156.263 350.22 159.819 365.03C161.708 372.898 166.896 378.446 175.079 381.347L181.357 383.573V399.423C181.357 409.947 180.924 415.272 180.069 415.272C177.775 415.272 171.933 408.505 171.179 404.97C170.776 403.079 170.209 400.357 169.92 398.923C168.946 394.092 160.715 393.887 159.2 398.656C156.58 406.907 164.09 420 174.481 425.292C179.823 428.012 181.357 429.402 181.357 431.524C181.357 433.025 182.543 435.083 183.993 436.098C186.237 437.669 186.989 437.702 189.075 436.321C190.42 435.431 191.79 433.32 192.119 431.631C192.558 429.378 194.464 427.657 199.294 425.159C211.277 418.958 216.772 406.672 213.698 392.947C211.823 384.579 206.981 379.036 198.919 376.033L192.717 373.724L192.383 358.056C192.117 345.508 192.372 342.389 193.67 342.389C197.081 342.389 202.881 350.873 202.881 355.865C202.881 357.449 203.994 359.752 205.354 360.982C207.627 363.037 208.087 363.07 211.033 361.389C213.824 359.796 214.218 358.856 214.064 354.152C213.736 344.159 205.688 333.535 196.037 330.352C192.814 329.29 192.119 328.449 192.119 325.611C192.119 320.753 187.801 318.445 183.45 320.978ZM174.887 346.065C171.13 350.527 170.079 354.279 170.999 359.95C171.793 364.836 175.941 369.869 179.174 369.869C181.161 369.869 181.357 368.635 181.357 356.129C181.357 340.803 180.475 339.429 174.887 346.065ZM192.119 400.934C192.119 408.82 192.537 415.272 193.048 415.272C195.032 415.272 199.39 411.382 201.094 408.09C202.077 406.192 202.881 402.406 202.881 399.68C202.881 395.634 202.132 393.973 198.815 390.659C196.579 388.425 194.158 386.597 193.434 386.597C192.551 386.597 192.119 391.303 192.119 400.934ZM293.759 492.337V582.545H329.034H364.309V492.337V402.129H329.034H293.759V492.337ZM170.595 529.974V582.545H205.272H239.949V529.974V477.402H205.272H170.595V529.974ZM140.289 605.042C137.794 607.795 137.751 611.688 140.188 614.123C141.885 615.817 166.313 616 391.231 616H640.395L642.255 613.344C644.716 609.835 644.604 608.123 641.726 605.247C639.35 602.873 637.74 602.857 390.801 602.857C151.544 602.857 142.193 602.938 140.289 605.042Z" fill="url(#paint0_linear_45_2)"/>
<defs>
<linearGradient id="paint0_linear_45_2" x1="582.459" y1="182.957" x2="206.731" y2="709.068" gradientUnits="userSpaceOnUse">
<stop stop-color="#00DA66"/>
<stop offset="1" stop-color="#327F4F"/>
</linearGradient>
</defs>
</svg>
